<svg width="16" height="16" viewBox="0 0 16 16" fill="none" xmlns="http://www.w3.org/2000/svg">
<path d="M8 4.5C8 4.2594 8 4.13909 8.08461 4.06445C8.16922 3.98981 8.27905 4.00361 8.49871 4.03121C9.02612 4.09748 9.53677 4.26845 10 4.5359C10.6081 4.88697 11.113 5.39192 11.4641 6C11.8152 6.60808 12 7.29785 12 8C12 8.70215 11.8152 9.39192 11.4641 10C11.113 10.6081 10.6081 11.113 10 11.4641C9.39192 11.8152 8.70215 12 8 12C7.29785 12 6.60808 11.8152 6 11.4641C5.53677 11.1967 5.13338 10.8399 4.81228 10.4163C4.67855 10.2399 4.61168 10.1516 4.63402 10.041C4.65636 9.93045 4.76054 9.8703 4.96891 9.75L7.75 8.14434C7.87201 8.0739 7.93301 8.03868 7.96651 7.98066C8 7.92265 8 7.85221 8 7.71132V4.5Z" fill="#9F6C05"/>
<circle cx="8.00008" cy="8" r="6.33333" stroke="#9F6C05" stroke-width="2"/>
</svg>
