<svg width="24" height="24" viewBox="0 0 24 24" fill="none" stroke="currentColor" xmlns="http://www.w3.org/2000/svg">
  <path d="M12 21C14.0822 21 16.1 20.278 17.7095 18.9571C19.3191 17.6362 20.4209 15.798 20.8271 13.7558C21.2333 11.7136 20.9188 9.59376 19.9373 7.75743C18.9558 5.9211 17.3679 4.48191 15.4442 3.68508C13.5205 2.88826 11.38 2.78311 9.38744 3.38754C7.3949 3.99197 5.67358 5.26858 4.51677 6.99987C3.35997 8.73115 2.83925 10.81 3.04334 12.8822C3.24743 14.9543 4.1637 16.8916 5.63604 18.364" stroke-width="2" stroke-linecap="round"/>
  <path d="M9 9L15 15" stroke-width="2" stroke-linecap="round"/>
  <path d="M15 9L9 15" stroke-width="2" stroke-linecap="round"/>
</svg>
