<svg width="22" height="26" viewBox="0 0 22 26" fill="none" stroke="currentColor" xmlns="http://www.w3.org/2000/svg">
  <path d="M11 25V14.3333M11 25L2.50418 18.9316C2.09361 18.6383 1.88832 18.4917 1.77749 18.2763C1.66666 18.0609 1.66666 17.8087 1.66666 17.3041V7.66667M11 25L19.4958 18.9316C19.9064 18.6383 20.1117 18.4917 20.2225 18.2763C20.3333 18.0609 20.3333 17.8087 20.3333 17.3041V7.66667M11 14.3333L1.66666 7.66667M11 14.3333L20.3333 7.66667M1.66666 7.66667L9.83751 1.83034C10.3989 1.42938 10.6795 1.2289 11 1.2289C11.3205 1.2289 11.6011 1.42938 12.1625 1.83034L20.3333 7.66667" stroke-width="2" stroke-linejoin="round"/>
</svg>
