<svg width="32" height="32" viewBox="0 0 32 32" fill="none" xmlns="http://www.w3.org/2000/svg">
<path d="M6.15385 11.8V28C6.15385 28.5523 6.60156 29 7.15385 29H16V6.9C15 6.9 14.0816 6.48911 13.3891 5.75772C12.9224 5.26468 12.5935 4.65323 12.4287 3.99021C12.2955 3.45423 11.86 3 11.3077 3H1C0.447715 3 0 3.44771 0 4V9.8C0 10.3523 0.447717 10.8 1 10.8H5.15385C5.70613 10.8 6.15385 11.2477 6.15385 11.8Z" fill="#FFB319"/>
<path d="M25.8462 11.8V28C25.8462 28.5523 25.3984 29 24.8462 29H16V6.9C17.0071 6.88782 17.9184 6.48911 18.6109 5.75772C19.0776 5.26468 19.4065 4.65323 19.5713 3.99021C19.7045 3.45423 20.14 3 20.6923 3H31C31.5523 3 32 3.44771 32 4V9.8C32 10.3523 31.5523 10.8 31 10.8H26.8462C26.2939 10.8 25.8462 11.2477 25.8462 11.8Z" fill="#FFB319"/>
<mask id="path-3-inside-1_2243_4168" fill="white">
<path fill-rule="evenodd" clip-rule="evenodd" d="M1 4C1 3.72386 1.22386 3.5 1.5 3.5H11.3077C11.5627 3.5 11.8475 3.72469 11.9434 4.11081C12.1283 4.85469 12.498 5.54376 13.0261 6.10147C13.8088 6.92824 14.8567 7.4 16 7.4C17.1432 7.4 18.1912 6.92824 18.9739 6.10147C19.502 5.54376 19.8717 4.85469 20.0566 4.11081C20.1525 3.72469 20.4373 3.5 20.6923 3.5H30.5C30.7761 3.5 31 3.72386 31 4V9.8C31 10.0761 30.7761 10.3 30.5 10.3H26.8462C26.0177 10.3 25.3462 10.9716 25.3462 11.8V28C25.3462 28.2761 25.1223 28.5 24.8462 28.5H16H7.15385C6.8777 28.5 6.65385 28.2761 6.65385 28V11.8C6.65385 10.9716 5.98227 10.3 5.15385 10.3H1.5C1.22386 10.3 1 10.0761 1 9.8V4ZM16 29.5H7.15385C6.32542 29.5 5.65385 28.8284 5.65385 28V11.8C5.65385 11.5239 5.42999 11.3 5.15385 11.3H1.5C0.671575 11.3 0 10.6284 0 9.8V4C0 3.17157 0.671573 2.5 1.5 2.5H11.3077C12.1572 2.5 12.7435 3.18377 12.9139 3.8696C13.0586 4.45176 13.3467 4.9856 13.7522 5.41396C14.3544 6.04998 15.1433 6.4 16 6.4C16.8568 6.4 17.6456 6.04998 18.2478 5.41396C18.6533 4.9856 18.9414 4.45176 19.0861 3.8696C19.2565 3.18377 19.8428 2.5 20.6923 2.5H30.5C31.3284 2.5 32 3.17157 32 4V9.8C32 10.6284 31.3284 11.3 30.5 11.3H26.8462C26.57 11.3 26.3462 11.5239 26.3462 11.8V28C26.3462 28.8284 25.6746 29.5 24.8462 29.5H16Z"/>
</mask>
<path d="M11.9434 4.11081L12.9139 3.8696L12.9139 3.8696L11.9434 4.11081ZM13.0261 6.10147L13.7522 5.41396L13.7522 5.41396L13.0261 6.10147ZM18.9739 6.10147L18.2478 5.41396L18.2478 5.41396L18.9739 6.10147ZM20.0566 4.11081L21.027 4.35202L21.027 4.35202L20.0566 4.11081ZM12.9139 3.8696L11.9434 4.11081L11.9434 4.11081L12.9139 3.8696ZM13.7522 5.41396L13.0261 6.10147L13.0261 6.10147L13.7522 5.41396ZM18.2478 5.41396L18.9739 6.10147L18.9739 6.10147L18.2478 5.41396ZM19.0861 3.8696L18.1156 3.62839L18.1156 3.62839L19.0861 3.8696ZM1.5 2.5C0.671573 2.5 0 3.17157 0 4H2C2 4.27614 1.77614 4.5 1.5 4.5V2.5ZM11.3077 2.5H1.5V4.5H11.3077V2.5ZM12.9139 3.8696C12.7385 3.16385 12.1405 2.5 11.3077 2.5V4.5C11.1433 4.5 11.0472 4.43199 11.0131 4.40107C10.9728 4.36448 10.9699 4.3396 10.973 4.35202L12.9139 3.8696ZM13.7522 5.41396C13.3467 4.98561 13.0586 4.45177 12.9139 3.8696L10.973 4.35202C11.1981 5.25761 11.6494 6.1019 12.2999 6.78898L13.7522 5.41396ZM16 6.4C15.1433 6.4 14.3544 6.05005 13.7522 5.41396L12.2999 6.78898C13.2631 7.80643 14.5702 8.4 16 8.4V6.4ZM16 8.4C17.4298 8.4 18.7369 7.80643 19.7001 6.78898L18.2478 5.41396C17.6456 6.05005 16.8567 6.4 16 6.4V8.4ZM19.7001 6.78898C20.3506 6.1019 20.802 5.25761 21.027 4.35202L19.0861 3.8696C18.9414 4.45177 18.6533 4.98561 18.2478 5.41396L19.7001 6.78898ZM21.027 4.35202C21.0301 4.3396 21.0272 4.36448 20.9869 4.40107C20.9528 4.43199 20.8567 4.5 20.6923 4.5V2.5C19.8595 2.5 19.2615 3.16385 19.0861 3.8696L21.027 4.35202ZM20.6923 4.5H30.5V2.5H20.6923V4.5ZM30.5 4.5C30.2239 4.5 30 4.27614 30 4H32C32 3.17157 31.3284 2.5 30.5 2.5V4.5ZM30 4V9.8H32V4H30ZM30 9.8C30 9.52385 30.2239 9.3 30.5 9.3V11.3C31.3284 11.3 32 10.6284 32 9.8H30ZM30.5 9.3H26.8462V11.3H30.5V9.3ZM26.8462 9.3C25.4654 9.3 24.3462 10.4193 24.3462 11.8H26.3462C26.3462 11.5239 26.57 11.3 26.8462 11.3V9.3ZM24.3462 11.8V28H26.3462V11.8H24.3462ZM24.3462 28C24.3462 27.7239 24.57 27.5 24.8462 27.5V29.5C25.6746 29.5 26.3462 28.8284 26.3462 28H24.3462ZM24.8462 27.5H16V29.5H24.8462V27.5ZM7.15385 29.5H16V27.5H7.15385V29.5ZM5.65385 28C5.65385 28.8284 6.32542 29.5 7.15385 29.5V27.5C7.42999 27.5 7.65385 27.7239 7.65385 28H5.65385ZM5.65385 11.8V28H7.65385V11.8H5.65385ZM5.15385 11.3C5.42999 11.3 5.65385 11.5239 5.65385 11.8H7.65385C7.65385 10.4193 6.53456 9.3 5.15385 9.3V11.3ZM1.5 11.3H5.15385V9.3H1.5V11.3ZM0 9.8C0 10.6284 0.671574 11.3 1.5 11.3V9.3C1.77614 9.3 2 9.52386 2 9.8H0ZM0 4V9.8H2V4H0ZM16 28.5H7.15385V30.5H16V28.5ZM7.15385 28.5C6.8777 28.5 6.65385 28.2761 6.65385 28H4.65385C4.65385 29.3807 5.77313 30.5 7.15385 30.5V28.5ZM6.65385 28V11.8H4.65385V28H6.65385ZM6.65385 11.8C6.65385 10.9716 5.98227 10.3 5.15385 10.3V12.3C4.8777 12.3 4.65385 12.0761 4.65385 11.8H6.65385ZM5.15385 10.3H1.5V12.3H5.15385V10.3ZM1.5 10.3C1.22386 10.3 1 10.0761 1 9.8H-1C-1 11.1807 0.119292 12.3 1.5 12.3V10.3ZM1 9.8V4H-1V9.8H1ZM1 4C1 3.72386 1.22386 3.5 1.5 3.5V1.5C0.119289 1.5 -1 2.61929 -1 4H1ZM1.5 3.5H11.3077V1.5H1.5V3.5ZM11.3077 3.5C11.446 3.5 11.5679 3.55074 11.6819 3.65749C11.8056 3.7734 11.9015 3.94193 11.9434 4.11081L13.8844 3.62839C13.6415 2.65117 12.7586 1.5 11.3077 1.5V3.5ZM11.9434 4.11081C12.1283 4.85472 12.4981 5.54377 13.0261 6.10147L14.4784 4.72646C14.1953 4.42743 13.9889 4.0488 13.8844 3.62839L11.9434 4.11081ZM13.0261 6.10147C13.8089 6.92833 14.8569 7.4 16 7.4V5.4C15.4296 5.4 14.8999 5.17162 14.4784 4.72646L13.0261 6.10147ZM17.5216 4.72646C17.1001 5.17162 16.5704 5.4 16 5.4V7.4C17.1431 7.4 18.1911 6.92833 18.9739 6.10147L17.5216 4.72646ZM18.1156 3.62839C18.0111 4.0488 17.8047 4.42743 17.5216 4.72646L18.9739 6.10147C19.5019 5.54377 19.8717 4.85471 20.0566 4.11081L18.1156 3.62839ZM20.6923 1.5C19.2414 1.5 18.3585 2.65116 18.1156 3.62839L20.0566 4.11081C20.0985 3.94193 20.1944 3.7734 20.3181 3.65749C20.4321 3.55074 20.554 3.5 20.6923 3.5V1.5ZM30.5 1.5H20.6923V3.5H30.5V1.5ZM33 4C33 2.61929 31.8807 1.5 30.5 1.5V3.5C30.7761 3.5 31 3.72386 31 4H33ZM33 9.8V4H31V9.8H33ZM30.5 12.3C31.8807 12.3 33 11.1807 33 9.8H31C31 10.0761 30.7761 10.3 30.5 10.3V12.3ZM26.8462 12.3H30.5V10.3H26.8462V12.3ZM27.3462 11.8C27.3462 12.0761 27.1223 12.3 26.8462 12.3V10.3C26.0177 10.3 25.3462 10.9716 25.3462 11.8H27.3462ZM27.3462 28V11.8H25.3462V28H27.3462ZM24.8462 30.5C26.2269 30.5 27.3462 29.3807 27.3462 28H25.3462C25.3462 28.2761 25.1223 28.5 24.8462 28.5V30.5ZM16 30.5H24.8462V28.5H16V30.5Z" fill="#181715" mask="url(#path-3-inside-1_2243_4168)"/>
</svg>
