<svg width="180" height="54" viewBox="0 0 180 54" fill="none" xmlns="http://www.w3.org/2000/svg">
<path d="M173.333 53.4196H6.66668C3.00005 53.4196 0 50.4147 0 46.7422V6.67748C0 3.00485 2.99999 0 6.66668 0H173.333C177 0 180 3.00485 180 6.67748V46.7421C180 50.4147 177 53.4196 173.333 53.4196" fill="black"/>
<path d="M173.333 0H6.66668C3.00005 0 0 3.00485 0 6.67748V46.7421C0 50.4147 2.99999 53.4196 6.66668 53.4196H173.333C177 53.4196 180 50.4147 180 46.7422V6.67748C180 3.00485 177 0 173.333 0H173.333ZM173.333 1.06836C176.421 1.06836 178.933 3.585 178.933 6.67748V46.7421C178.933 49.8352 176.421 52.3518 173.333 52.3518H6.66668C3.57924 52.3518 1.06668 49.8351 1.06668 46.7422V6.67748C1.06668 3.585 3.57918 1.06842 6.66668 1.06842H173.333" fill="#A6A6A6"/>
<path d="M63.2246 13.68C63.2246 14.7989 62.8938 15.6899 62.2313 16.3546C61.4787 17.1449 60.4979 17.5404 59.2921 17.5404C58.1375 17.5404 57.1557 17.1397 56.3484 16.3373C55.5396 15.5355 55.136 14.5412 55.136 13.3549C55.136 12.1681 55.5396 11.1744 56.3484 10.3719C57.1557 9.57018 58.1375 9.16895 59.2921 9.16895C59.8651 9.16895 60.4136 9.28118 60.9344 9.505C61.4552 9.72935 61.8729 10.0272 62.1855 10.4001L61.4823 11.1049C60.9527 10.4711 60.2235 10.1544 59.2921 10.1544C58.4501 10.1544 57.7219 10.4508 57.1073 11.0439C56.4927 11.6376 56.1854 12.4076 56.1854 13.3549C56.1854 14.3023 56.4927 15.0722 57.1073 15.666C57.7219 16.2591 58.45 16.5554 59.2921 16.5554C60.1855 16.5554 60.9303 16.2575 61.5266 15.6608C61.9136 15.272 62.1375 14.7317 62.1974 14.0378H59.2921V13.0753H63.1688C63.2062 13.2846 63.2245 13.4854 63.2245 13.68" fill="white"/>
<path d="M63.2245 13.6798H63.0912C63.0901 14.7731 62.7713 15.6224 62.1369 16.2599L62.1355 16.261L62.1349 16.2621C61.4062 17.0252 60.4696 17.405 59.292 17.4066C58.1682 17.405 57.2275 17.021 56.442 16.2427C55.6583 15.4628 55.2707 14.5107 55.2692 13.3547C55.2707 12.1982 55.6583 11.2466 56.442 10.4672C57.2275 9.68836 58.1682 9.30387 59.292 9.30225C59.8478 9.30225 60.377 9.41088 60.8817 9.62732C61.3868 9.84543 61.7859 10.1312 62.0833 10.4861L62.1854 10.3999L62.0911 10.3055L61.3879 11.0107L61.4822 11.1047L61.5849 11.0192C61.0306 10.354 60.2526 10.0186 59.2921 10.0206C58.4187 10.0195 57.6505 10.3321 57.015 10.9478C56.3734 11.5654 56.051 12.3786 56.0521 13.3547C56.051 14.3308 56.3734 15.144 57.015 15.7617C57.6505 16.3773 58.4187 16.6898 59.292 16.6887C60.215 16.6904 61.0015 16.3768 61.6207 15.755C62.0343 15.3396 62.2687 14.7643 62.3302 14.049L62.3426 13.904H59.4254V13.2086H63.1687V13.0751L63.0374 13.0985C63.0739 13.301 63.0911 13.4935 63.0911 13.6798H63.3578C63.3578 13.4768 63.339 13.2681 63.2999 13.0512L63.2802 12.9415H59.1588V14.1711H62.1973V14.0375L62.0645 14.0261C62.0057 14.6981 61.7921 15.2041 61.4322 15.5662C60.8593 16.1379 60.1562 16.42 59.2921 16.4217C58.4812 16.4206 57.7932 16.1409 57.2 15.5697C56.6125 15.0006 56.3202 14.2739 56.3187 13.3547C56.3202 12.4355 56.6125 11.7088 57.2 11.1396C57.7932 10.5684 58.4812 10.2888 59.2921 10.2877C60.1937 10.2899 60.8745 10.5882 61.3802 11.1908L61.474 11.3024L62.2797 10.4944L62.3661 10.4078L62.2874 10.3143C61.9599 9.92316 61.5234 9.61267 60.9869 9.38219C60.4495 9.151 59.8823 9.03516 59.2921 9.03516C58.1067 9.03414 57.0838 9.45146 56.2541 10.2773C55.4213 11.1016 55.0015 12.1377 55.0027 13.3547C55.0015 14.5712 55.4213 15.6078 56.2546 16.4326C57.0838 17.2579 58.1067 17.6748 59.2921 17.6737C60.5265 17.6748 61.5505 17.2641 62.3276 16.4466L62.2311 16.3543L62.3254 16.4488C63.0161 15.7575 63.3587 14.8237 63.3578 13.6798H63.2245H63.2245ZM69.3702 10.3326H65.727V12.8733H69.0125V13.8361H65.727V16.3768H69.3702V17.3611H64.7V9.34822H69.3702V10.3326Z" fill="white"/>
<path d="M69.3702 10.3328V10.1992H65.5937V13.007H68.8792V13.7024L65.5937 13.7027V16.5105H69.2369V17.2278H64.8333V9.48193H69.2369V10.3328H69.3702V10.1992V10.3328H69.5035V9.21484H64.5667V17.4949H69.5035V16.2434H65.8603V13.9698H69.1458V12.7399H65.8603V10.4663H69.5035V10.3328H69.3702ZM73.7051 17.3614H72.6765V10.3327H70.4421V9.34833H75.9396V10.3327H73.7051V17.3613" fill="white"/>
<path d="M73.7052 17.3614V17.2278H72.8099V10.1992H70.5755V9.48199H75.8063V10.1992H73.5719V17.3613H73.7052V17.2278V17.3613H73.8386V10.4663H76.0729V9.21484H70.3088V10.4663H72.5432V17.4948H73.8386V17.3613H73.7052V17.3614ZM79.9172 17.3614V9.34833H80.9448V17.3613H79.9172" fill="white"/>
<path d="M79.9172 17.3614H80.0506V9.48193H80.8115V17.2278H79.9172V17.3613H80.0506H79.9172V17.4949H81.0781V9.21484H79.7839V17.4949H79.9172V17.3613V17.3614ZM85.5047 17.3614H84.4761V10.3327H82.2418V9.34833H87.7391V10.3327H85.5047V17.3613" fill="white"/>
<path d="M85.5046 17.3615V17.2278H84.6093V10.1993H82.3751V9.48207H87.6057V10.1993H85.3713V17.3614H85.5046V17.2278V17.3614H85.638V10.4664H87.8724V9.21492H82.1084V10.4663H84.3426V17.4949H85.638V17.3613H85.5046V17.3615ZM93.0391 15.6551C93.6312 16.2555 94.3557 16.5554 95.2125 16.5554C96.0693 16.5554 96.7942 16.2555 97.3854 15.6551C97.9781 15.0546 98.2751 14.2871 98.2751 13.3549C98.2751 12.4228 97.9781 11.6553 97.3854 11.0548C96.7942 10.4544 96.0693 10.1544 95.2125 10.1544C94.3557 10.1544 93.6312 10.4544 93.0391 11.0548C92.4479 11.6553 92.1511 12.4228 92.1511 13.3549C92.1511 14.2871 92.4479 15.0546 93.0391 15.6551ZM98.1458 16.3259C97.3593 17.136 96.3812 17.5404 95.2125 17.5404C94.0427 17.5404 93.065 17.136 92.2802 16.3259C91.4932 15.5167 91.1016 14.5262 91.1016 13.3549C91.1016 12.1837 91.4932 11.193 92.2802 10.384C93.0651 9.57372 94.0427 9.16895 95.2125 9.16895C96.3751 9.16895 97.3505 9.57588 98.1407 10.3892C98.9297 11.2025 99.3245 12.191 99.3245 13.3549C99.3245 14.5262 98.9307 15.5167 98.1458 16.3259Z" fill="white"/>
<path d="M93.0391 15.6548L92.9442 15.7487C93.5584 16.3732 94.3245 16.6904 95.2125 16.6887C96.1 16.6904 96.8672 16.3732 97.4803 15.7487C98.0984 15.1237 98.4093 14.3151 98.4084 13.3547C98.4093 12.3944 98.0984 11.5857 97.4803 10.9607C96.8672 10.3362 96.1 10.0191 95.2125 10.0206C94.3245 10.0191 93.5584 10.3362 92.9442 10.9607C92.3276 11.5857 92.0161 12.3944 92.0177 13.3547C92.0161 14.315 92.3276 15.1237 92.9442 15.7487L93.0391 15.6548L93.1339 15.5609C92.5683 14.9844 92.2855 14.2593 92.2844 13.3547C92.2855 12.4502 92.5683 11.725 93.1339 11.1485C93.7046 10.5721 94.3864 10.2893 95.2125 10.2878C96.038 10.2893 96.7213 10.5721 97.2907 11.1485C97.8573 11.725 98.1401 12.4502 98.1411 13.3547C98.1401 14.2592 97.8573 14.9844 97.2907 15.5609C96.7213 16.1373 96.038 16.42 95.2125 16.4216C94.3864 16.42 93.7046 16.1373 93.1339 15.5609L93.0391 15.6548ZM98.1458 16.3256L98.0505 16.2328C97.286 17.0174 96.351 17.405 95.2125 17.4066C94.0735 17.405 93.1385 17.0174 92.3754 16.2328L92.3718 16.2286L92.3754 16.2328C91.6125 15.4455 91.236 14.4962 91.2349 13.3547C91.236 12.2132 91.6125 11.2638 92.3754 10.4766C93.1385 9.69196 94.0734 9.30387 95.2125 9.30231C96.3437 9.30387 97.2765 9.69358 98.0453 10.4823C98.8109 11.2732 99.1896 12.2211 99.1912 13.3547C99.1896 14.4962 98.812 15.4455 98.0505 16.2328L98.1458 16.3256L98.2417 16.4184C99.05 15.587 99.4588 14.5556 99.4579 13.3547C99.4588 12.1606 99.0484 11.1314 98.2364 10.2962C97.424 9.4577 96.4063 9.03372 95.2125 9.03516C94.0125 9.03372 92.9917 9.45572 92.1844 10.291V10.2904C91.3745 11.1224 90.9672 12.1538 90.9683 13.3547C90.9672 14.5556 91.3745 15.587 92.1844 16.419L92.188 16.4227L92.1844 16.4184C92.9917 17.2537 94.0125 17.6748 95.2125 17.6737C96.412 17.6748 97.4328 17.2537 98.2417 16.4184L98.1458 16.3256ZM100.767 17.3612V9.34816H102.018L105.906 15.5817H105.951L105.906 14.0375V9.34816H106.935V17.3611H105.862L101.794 10.8255H101.75L101.794 12.3702V17.3611H100.767" fill="white"/>
<path d="M100.767 17.3614H100.901V9.48193H101.944L105.832 15.7154H106.088L106.04 14.0357V9.48199H106.802V17.2278H105.936L101.868 10.6922H101.613L101.661 12.3726V17.2278H100.767V17.3613H100.901H100.767V17.4949H101.928V12.3684L101.883 10.8221L101.75 10.8257V10.9593H101.794V10.8257L101.681 10.8967L105.788 17.4949H107.068V9.21484H105.773V14.0393L105.817 15.5855L105.951 15.5819V15.4484H105.906V15.5819L106.019 15.511L102.092 9.21484H100.634V17.4949H100.767V17.3613L100.767 17.3614ZM142.581 40.0646H145.069V23.3694H142.581L142.581 40.0646ZM164.991 29.3835L162.139 36.6217H162.053L159.093 29.3834H156.413L160.852 39.5002L158.321 45.1275H160.917L167.757 29.3834L164.991 29.3835ZM150.881 38.1684C150.065 38.1684 148.929 37.7604 148.929 36.7505C148.929 35.4619 150.345 34.9679 151.567 34.9679C152.661 34.9679 153.175 35.2042 153.84 35.5267C153.647 37.0729 152.317 38.1684 150.881 38.1684ZM151.181 29.0182C149.38 29.0182 147.515 29.8132 146.743 31.5744L148.951 32.4978C149.423 31.5744 150.301 31.2734 151.224 31.2734C152.511 31.2734 153.819 32.047 153.84 33.4217V33.5933C153.389 33.3356 152.425 32.949 151.245 32.949C148.865 32.949 146.441 34.2589 146.441 36.7077C146.441 38.9416 148.393 40.3808 150.58 40.3808C152.253 40.3808 153.175 39.629 153.755 38.7485H153.84V40.037H156.241V33.636C156.241 30.6725 154.033 29.0182 151.181 29.0182ZM135.805 31.4158H132.267V25.6931H135.805C137.665 25.6931 138.721 27.2356 138.721 28.5543C138.721 29.8481 137.665 31.4158 135.805 31.4158ZM135.741 23.3694H129.78V40.0646H132.267V33.7394H135.741C138.499 33.7394 141.209 31.7397 141.209 28.5543C141.209 25.3691 138.499 23.3694 135.741 23.3694ZM103.233 38.1715C101.515 38.1715 100.076 36.7301 100.076 34.7503C100.076 32.7498 101.515 31.2865 103.233 31.2865C104.93 31.2865 106.262 32.7498 106.262 34.7503C106.262 36.7301 104.93 38.1715 103.233 38.1715H103.233ZM106.09 30.3183H106.004C105.446 29.6515 104.371 29.049 103.018 29.049C100.183 29.049 97.5839 31.5447 97.5839 34.7503C97.5839 37.9347 100.183 40.409 103.018 40.409C104.371 40.409 105.446 39.8064 106.004 39.1183H106.09V39.9358C106.09 42.1092 104.93 43.2709 103.062 43.2709C101.536 43.2709 100.591 42.1733 100.204 41.2483L98.035 42.1519C98.6579 43.6579 100.312 45.5084 103.062 45.5084C105.983 45.5084 108.453 43.7868 108.453 39.5915V29.3933H106.09V30.3183ZM110.171 40.0646H112.663V23.3689H110.171V40.0646ZM116.336 34.5568C116.272 32.3621 118.033 31.2436 119.301 31.2436C120.289 31.2436 121.127 31.7382 121.405 32.4488L116.336 34.5568ZM124.069 32.6636C123.597 31.3938 122.157 29.049 119.215 29.049C116.293 29.049 113.866 31.3511 113.866 34.729C113.866 37.9133 116.272 40.409 119.494 40.409C122.093 40.409 123.597 38.8168 124.22 37.8918L122.287 36.6006C121.643 37.5475 120.761 38.1715 119.494 38.1715C118.227 38.1715 117.325 37.5904 116.744 36.4504L124.327 33.309L124.069 32.6636ZM63.6585 30.7918V33.2015H69.4151C69.2433 34.5568 68.7922 35.5465 68.1047 36.235C67.2672 37.0744 65.9569 37.9994 63.6584 37.9994C60.114 37.9994 57.3433 35.1379 57.3433 31.5879C57.3433 28.0379 60.114 25.1761 63.6585 25.1761C65.5703 25.1761 66.9662 25.9293 67.9974 26.8975L69.6943 25.198C68.2553 23.8207 66.3433 22.7665 63.6585 22.7665C58.8037 22.7665 54.7224 26.7254 54.7224 31.5879C54.7224 36.4504 58.8037 40.409 63.6585 40.409C66.2792 40.409 68.2553 39.5488 69.8016 37.9347C71.3913 36.3425 71.8855 34.1051 71.8855 32.298C71.8855 31.7382 71.8427 31.2222 71.7563 30.7918H63.6585ZM78.4303 38.1715C76.7115 38.1715 75.2293 36.7514 75.2293 34.729C75.2293 32.685 76.7115 31.2865 78.4303 31.2865C80.1484 31.2865 81.6307 32.685 81.6307 34.729C81.6307 36.7515 80.1484 38.1715 78.4303 38.1715ZM78.4303 29.049C75.2938 29.049 72.7375 31.4371 72.7375 34.729C72.7375 37.9994 75.2938 40.409 78.4303 40.409C81.5662 40.409 84.1224 37.9994 84.1224 34.729C84.1224 31.4371 81.5662 29.049 78.4303 29.049ZM90.8479 38.1715C89.1298 38.1715 87.6474 36.7514 87.6474 34.729C87.6474 32.685 89.1298 31.2865 90.8479 31.2865C92.5662 31.2865 94.0484 32.685 94.0484 34.729C94.0484 36.7515 92.5662 38.1715 90.8479 38.1715H90.8479ZM90.8479 29.049C87.7115 29.049 85.1558 31.4371 85.1558 34.729C85.1558 37.9994 87.7115 40.409 90.8479 40.409C93.9839 40.409 96.5402 37.9994 96.5402 34.729C96.5402 31.4371 93.9839 29.049 90.8479 29.049H90.8479Z" fill="white"/>
<path d="M14.0114 10.165C13.564 10.5693 13.2969 11.2438 13.2969 12.139V11.9366V41.4792V41.2846C13.2969 42.1113 13.526 42.7498 13.9139 43.161L14.013 43.256V43.2564C14.327 43.5402 14.7297 43.6909 15.1912 43.6905C15.6421 43.6905 16.1495 43.5465 16.6849 43.2424L36.0385 32.2282L42.6863 28.4445C43.5306 27.9641 44.0046 27.3444 44.0838 26.7131V26.7105C44.0046 26.0777 43.5306 25.4585 42.6864 24.978L36.038 21.1947L16.685 10.1806C16.1484 9.87597 15.6407 9.73145 15.1885 9.73145C14.7276 9.73145 14.3254 9.88168 14.0115 10.165H14.0114Z" fill="#00C1FF"/>
<path d="M14.013 43.2559L13.9139 43.1609C13.526 42.7498 13.2969 42.1112 13.2969 41.2844V41.479V11.9438V12.1389C13.2969 11.2436 13.564 10.5692 14.0114 10.1648L30.5312 26.7109L14.013 43.2559Z" fill="url(#paint0_linear_2588_5742)"/>
<path d="M36.0386 32.2285L30.5312 26.7113L36.0381 21.1951L42.6865 24.9783C43.5307 25.4588 44.0047 26.078 44.0839 26.7108V26.7133C44.0047 27.3446 43.5307 27.9644 42.6865 28.4448L36.0386 32.2285" fill="url(#paint1_linear_2588_5742)"/>
<path d="M15.1913 43.6904C14.7298 43.6908 14.3271 43.5401 14.0132 43.2563V43.2559L30.5313 26.7109L36.0386 32.2281L16.685 43.2423C16.1495 43.5464 15.6422 43.6904 15.1913 43.6904Z" fill="url(#paint2_linear_2588_5742)"/>
<path d="M30.5313 26.7109L14.0115 10.1649C14.3255 9.8816 14.7276 9.73136 15.1885 9.73136C15.6407 9.73136 16.1484 9.87583 16.685 10.1805L36.0381 21.1947L30.5312 26.7109" fill="url(#paint3_linear_2588_5742)"/>
<path d="M15.1917 43.8857C14.7303 43.8857 14.3271 43.735 14.013 43.4512L14.0125 43.4517C14.0112 43.4504 14.0098 43.4492 14.0084 43.4481L13.9225 43.364C13.9198 43.3614 13.9172 43.3583 13.9141 43.3553L14.0131 43.2561C14.3271 43.5398 14.7297 43.6906 15.1913 43.6901C15.6422 43.6901 16.1495 43.5461 16.685 43.242L36.0386 32.2279L36.1626 32.3521L36.037 32.4235L16.6849 43.4371C16.1969 43.7141 15.7328 43.8586 15.3136 43.8827C15.273 43.8847 15.2323 43.8857 15.1917 43.8857" fill="url(#paint4_linear_2588_5742)"/>
<path d="M13.9139 43.3555C13.526 42.9443 13.2969 42.3063 13.2969 41.479V41.2844C13.2969 42.1112 13.526 42.7497 13.9139 43.1609L14.013 43.2558L13.9139 43.3555Z" fill="url(#paint5_linear_2588_5742)"/>
<path d="M36.1626 32.3525L36.0386 32.2282L42.6864 28.4446C43.5307 27.9642 44.0047 27.3444 44.0839 26.7131C44.0839 26.9448 44.0323 27.1764 43.9298 27.4018C43.723 27.8562 43.3085 28.2855 42.6865 28.6397L36.1626 32.3525" fill="url(#paint6_linear_2588_5742)"/>
<path d="M44.084 26.71C44.0047 26.0772 43.5308 25.4579 42.6865 24.9774L36.0381 21.1942L36.1621 21.07H36.1626L42.6865 24.7828C43.6173 25.3129 44.0834 26.0113 44.084 26.71Z" fill="url(#paint7_linear_2588_5742)"/>
<path d="M13.2969 12.1387V11.9346C13.2969 11.861 13.2989 11.7891 13.3026 11.7192V11.716C13.3026 11.715 13.3026 11.714 13.303 11.7129V11.7051C13.3432 10.9929 13.564 10.4375 13.9139 10.0665L14.0114 10.1645C13.564 10.569 13.2969 11.2434 13.2969 12.1387Z" fill="url(#paint8_linear_2588_5742)"/>
<path d="M36.038 21.1943L16.685 10.18C16.1484 9.87544 15.6407 9.73097 15.1886 9.73097C14.7276 9.73097 14.3255 9.8812 14.0115 10.1645L13.9141 10.0664C13.9445 10.0341 13.9761 10.003 14.0089 9.97309C14.0099 9.97201 14.0115 9.97093 14.0126 9.96991C14.3241 9.68878 14.7219 9.53855 15.1787 9.53585H15.1886C15.6407 9.53585 16.1484 9.68038 16.685 9.9851L36.1626 21.0697L36.162 21.0701L36.038 21.1943Z" fill="url(#paint9_linear_2588_5742)"/>
<defs>
<linearGradient id="paint0_linear_2588_5742" x1="23.854" y1="11.6317" x2="9.61767" y2="25.8909" gradientUnits="userSpaceOnUse">
<stop stop-color="#00A0FF"/>
<stop offset="0.00657" stop-color="#00A1FF"/>
<stop offset="0.2601" stop-color="#00BEFF"/>
<stop offset="0.5122" stop-color="#00D2FF"/>
<stop offset="0.7604" stop-color="#00DFFF"/>
<stop offset="1" stop-color="#00E3FF"/>
</linearGradient>
<linearGradient id="paint1_linear_2588_5742" x1="45.1126" y1="26.616" x2="12.8499" y2="26.616" gradientUnits="userSpaceOnUse">
<stop stop-color="#FFE000"/>
<stop offset="0.4087" stop-color="#FFBD00"/>
<stop offset="0.7754" stop-color="#FFA500"/>
<stop offset="1" stop-color="#FF9C00"/>
</linearGradient>
<linearGradient id="paint2_linear_2588_5742" x1="33.1147" y1="31.9564" x2="8.99022" y2="55.9433" gradientUnits="userSpaceOnUse">
<stop stop-color="#FF3A44"/>
<stop offset="1" stop-color="#C31162"/>
</linearGradient>
<linearGradient id="paint3_linear_2588_5742" x1="9.75386" y1="7.71186" x2="20.5056" y2="18.4187" gradientUnits="userSpaceOnUse">
<stop stop-color="#32A071"/>
<stop offset="0.0685" stop-color="#2DA771"/>
<stop offset="0.4762" stop-color="#15CF74"/>
<stop offset="0.8009" stop-color="#06E775"/>
<stop offset="1" stop-color="#00F076"/>
</linearGradient>
<linearGradient id="paint4_linear_2588_5742" x1="33.1027" y1="35.7832" x2="13.7825" y2="55.1346" gradientUnits="userSpaceOnUse">
<stop stop-color="#CC2E36"/>
<stop offset="1" stop-color="#9C0E4E"/>
</linearGradient>
<linearGradient id="paint5_linear_2588_5742" x1="15.4976" y1="11.6316" x2="2.95555" y2="24.194" gradientUnits="userSpaceOnUse">
<stop stop-color="#008DE0"/>
<stop offset="0.00657" stop-color="#008DE0"/>
<stop offset="0.2601" stop-color="#00A7E0"/>
<stop offset="0.5122" stop-color="#00B8E0"/>
<stop offset="0.7604" stop-color="#00C4E0"/>
<stop offset="1" stop-color="#00C7E0"/>
</linearGradient>
<linearGradient id="paint6_linear_2588_5742" x1="45.1126" y1="26.7119" x2="12.8499" y2="26.7119" gradientUnits="userSpaceOnUse">
<stop stop-color="#E0C500"/>
<stop offset="0.4087" stop-color="#E0A600"/>
<stop offset="0.7754" stop-color="#E09100"/>
<stop offset="1" stop-color="#E08900"/>
</linearGradient>
<linearGradient id="paint7_linear_2588_5742" x1="45.1126" y1="26.7113" x2="12.85" y2="26.7113" gradientUnits="userSpaceOnUse">
<stop stop-color="#FFE840"/>
<stop offset="0.4087" stop-color="#FFCE40"/>
<stop offset="0.7754" stop-color="#FFBC40"/>
<stop offset="1" stop-color="#FFB540"/>
</linearGradient>
<linearGradient id="paint8_linear_2588_5742" x1="15.4839" y1="11.6541" x2="3.40378" y2="23.2296" gradientUnits="userSpaceOnUse">
<stop stop-color="#40B8FF"/>
<stop offset="0.00657" stop-color="#40B9FF"/>
<stop offset="0.2601" stop-color="#40CEFF"/>
<stop offset="0.5122" stop-color="#40DDFF"/>
<stop offset="0.7604" stop-color="#40E7FF"/>
<stop offset="1" stop-color="#40EAFF"/>
</linearGradient>
<linearGradient id="paint9_linear_2588_5742" x1="9.72978" y1="11.2106" x2="18.3571" y2="19.852" gradientUnits="userSpaceOnUse">
<stop stop-color="#65B895"/>
<stop offset="0.0685" stop-color="#62BD95"/>
<stop offset="0.4762" stop-color="#50DB97"/>
<stop offset="0.8009" stop-color="#44ED98"/>
<stop offset="1" stop-color="#40F498"/>
</linearGradient>
</defs>
</svg>
