<svg width="180" height="53" viewBox="0 0 180 53" fill="none" xmlns="http://www.w3.org/2000/svg">
<path d="M179 46.8877C179 49.7122 176.709 52 173.874 52H6.13243C3.2995 52 1 49.7122 1 46.8877V6.11895C1 3.29585 3.2995 1 6.13243 1H173.873C176.709 1 178.999 3.29585 178.999 6.11895L179 46.8877Z" fill="black"/>
<path d="M173.333 1.06166C176.42 1.06166 178.932 3.55763 178.932 6.625V46.375C178.932 49.4424 176.42 51.9383 173.333 51.9383H6.66667C3.58 51.9383 1.06833 49.4424 1.06833 46.375V6.625C1.06833 3.55763 3.58 1.06166 6.66667 1.06166H173.333ZM173.333 5.1631e-06H6.66667C3.00167 5.1631e-06 0 2.98291 0 6.625V46.375C0 50.0171 3.00167 53 6.66667 53H173.333C176.998 53 180 50.0171 180 46.375V6.625C180 2.98291 176.998 5.1631e-06 173.333 5.1631e-06Z" fill="#A6A6A6"/>
<path d="M40.1707 26.2136C40.132 21.9431 43.6894 19.8655 43.852 19.7688C41.8374 16.8498 38.7147 16.451 37.6174 16.4192C34.9947 16.1449 32.4507 17.9787 31.1147 17.9787C29.752 17.9787 27.6947 16.4457 25.4774 16.4907C22.624 16.5345 19.9547 18.1761 18.4907 20.7254C15.4694 25.9234 17.7227 33.562 20.6174 37.7636C22.0654 39.8213 23.7574 42.1189 25.972 42.038C28.1387 41.9493 28.948 40.6653 31.5627 40.6653C34.1534 40.6653 34.9134 42.038 37.172 41.9864C39.4974 41.9493 40.9614 39.9194 42.3587 37.8431C44.032 35.4846 44.704 33.1619 44.7307 33.0426C44.676 33.0241 40.2147 31.3321 40.1707 26.2136Z" fill="white"/>
<path d="M35.904 13.6552C37.0694 12.207 37.8667 10.2367 37.6454 8.2373C35.9587 8.3115 33.8494 9.39668 32.6347 10.8131C31.56 12.0613 30.6 14.1071 30.848 16.031C32.7427 16.1714 34.688 15.0809 35.904 13.6552Z" fill="white"/>
<path d="M71.5266 41.7435H68.4986L66.84 36.564H61.0746L59.4946 41.7435H56.5466L62.2586 24.1104H65.7866L71.5266 41.7435ZM66.34 34.391L64.84 29.7867C64.6813 29.3163 64.384 28.2086 63.9453 26.4649H63.892C63.7173 27.2148 63.436 28.3225 63.0493 29.7867L61.576 34.391H66.34Z" fill="white"/>
<path d="M86.2159 35.2296C86.2159 37.392 85.6279 39.1013 84.4519 40.356C83.3985 41.473 82.0905 42.0308 80.5292 42.0308C78.8439 42.0308 77.6332 41.4293 76.8959 40.2262H76.8425V46.9241H73.9999V33.2143C73.9999 31.8548 73.9639 30.4596 73.8945 29.0286H76.3945L76.5532 31.0439H76.6065C77.5545 29.5255 78.9932 28.7676 80.9239 28.7676C82.4332 28.7676 83.6932 29.3599 84.7012 30.5457C85.7119 31.7329 86.2159 33.2938 86.2159 35.2296ZM83.3199 35.333C83.3199 34.0954 83.0399 33.0752 82.4772 32.2722C81.8625 31.4348 81.0372 31.0161 80.0025 31.0161C79.3012 31.0161 78.6639 31.2493 78.0945 31.7091C77.5239 32.1728 77.1505 32.7784 76.9759 33.5283C76.8879 33.8781 76.8439 34.1643 76.8439 34.3896V36.5096C76.8439 37.4344 77.1292 38.2148 77.6999 38.8522C78.2705 39.4895 79.0119 39.8075 79.9239 39.8075C80.9945 39.8075 81.8279 39.3967 82.4239 38.5779C83.0212 37.7577 83.3199 36.6765 83.3199 35.333Z" fill="white"/>
<path d="M100.932 35.2296C100.932 37.392 100.344 39.1013 99.1667 40.356C98.1147 41.473 96.8067 42.0308 95.2454 42.0308C93.5601 42.0308 92.3494 41.4293 91.6134 40.2262H91.5601V46.9241H88.7174V33.2143C88.7174 31.8548 88.6814 30.4596 88.6121 29.0286H91.1121L91.2707 31.0439H91.3241C92.2707 29.5255 93.7094 28.7676 95.6414 28.7676C97.1494 28.7676 98.4094 29.3599 99.4201 30.5457C100.427 31.7329 100.932 33.2938 100.932 35.2296ZM98.0361 35.333C98.0361 34.0954 97.7547 33.0752 97.1921 32.2722C96.5774 31.4348 95.7547 31.0161 94.7187 31.0161C94.0161 31.0161 93.3801 31.2493 92.8094 31.7091C92.2387 32.1728 91.8667 32.7784 91.6921 33.5283C91.6054 33.8781 91.5601 34.1643 91.5601 34.3896V36.5096C91.5601 37.4344 91.8454 38.2148 92.4134 38.8522C92.9841 39.4882 93.7254 39.8075 94.6401 39.8075C95.7107 39.8075 96.5441 39.3967 97.1401 38.5779C97.7374 37.7577 98.0361 36.6765 98.0361 35.333Z" fill="white"/>
<path d="M117.385 36.7981C117.385 38.298 116.861 39.5184 115.809 40.4604C114.653 41.49 113.044 42.0041 110.976 42.0041C109.067 42.0041 107.536 41.6384 106.377 40.9056L107.036 38.5511C108.284 39.3011 109.653 39.6774 111.145 39.6774C112.216 39.6774 113.049 39.4362 113.648 38.9566C114.244 38.4769 114.541 37.833 114.541 37.03C114.541 36.3145 114.296 35.7116 113.804 35.2227C113.315 34.7338 112.497 34.2793 111.356 33.8593C108.249 32.7079 106.697 31.0211 106.697 28.8031C106.697 27.3535 107.241 26.165 108.331 25.2402C109.416 24.314 110.864 23.8516 112.675 23.8516C114.289 23.8516 115.631 24.1311 116.701 24.689L115.991 26.9918C114.991 26.4512 113.86 26.1809 112.595 26.1809C111.595 26.1809 110.813 26.426 110.253 26.9136C109.78 27.3496 109.543 27.8809 109.543 28.5103C109.543 29.2072 109.813 29.7836 110.357 30.2367C110.831 30.6554 111.691 31.1086 112.939 31.5975C114.465 32.2083 115.587 32.9225 116.308 33.7414C117.027 34.5576 117.385 35.5791 117.385 36.7981Z" fill="white"/>
<path d="M126.784 31.1484H123.651V37.3216C123.651 38.8917 124.203 39.6761 125.309 39.6761C125.817 39.6761 126.239 39.6324 126.572 39.545L126.651 41.6901C126.091 41.8982 125.353 42.0028 124.44 42.0028C123.317 42.0028 122.44 41.6623 121.807 40.9826C121.176 40.3015 120.859 39.1594 120.859 37.5548V31.1458H118.992V29.0258H120.859V26.6978L123.651 25.8604V29.0258H126.784V31.1484Z" fill="white"/>
<path d="M140.921 35.2809C140.921 37.2353 140.358 38.8399 139.236 40.0947C138.058 41.3865 136.496 42.0305 134.548 42.0305C132.67 42.0305 131.176 41.4117 130.061 40.1742C128.946 38.9366 128.389 37.3744 128.389 35.4916C128.389 33.5213 128.962 31.9075 130.113 30.6527C131.261 29.3966 132.81 28.7686 134.758 28.7686C136.636 28.7686 138.146 29.3873 139.286 30.6262C140.377 31.828 140.921 33.3796 140.921 35.2809ZM137.972 35.3724C137.972 34.1997 137.72 33.1941 137.209 32.3553C136.613 31.3404 135.761 30.8342 134.657 30.8342C133.514 30.8342 132.646 31.3417 132.05 32.3553C131.54 33.1954 131.288 34.217 131.288 35.4254C131.288 36.598 131.54 37.6037 132.05 38.4411C132.665 39.456 133.524 39.9622 134.632 39.9622C135.717 39.9622 136.569 39.4454 137.184 38.4146C137.708 37.5599 137.972 36.5437 137.972 35.3724Z" fill="white"/>
<path d="M150.161 31.513C149.88 31.4613 149.58 31.4348 149.265 31.4348C148.265 31.4348 147.492 31.8098 146.948 32.5611C146.475 33.2236 146.237 34.061 146.237 35.0719V41.7433H143.396L143.423 33.0328C143.423 31.5673 143.387 30.233 143.316 29.0299H145.792L145.896 31.4626H145.975C146.275 30.6266 146.748 29.9535 147.396 29.4486C148.029 28.9942 148.713 28.7676 149.451 28.7676C149.713 28.7676 149.951 28.7861 150.161 28.8193V31.513Z" fill="white"/>
<path d="M162.875 34.7838C162.875 35.29 162.841 35.7166 162.771 36.0651H154.243C154.276 37.3212 154.688 38.2818 155.48 38.9443C156.199 39.5366 157.128 39.8334 158.269 39.8334C159.532 39.8334 160.684 39.6333 161.72 39.2319L162.165 41.1929C160.955 41.7176 159.525 41.9786 157.876 41.9786C155.892 41.9786 154.335 41.3982 153.201 40.2389C152.071 39.0795 151.504 37.5226 151.504 35.5696C151.504 33.6523 152.031 32.0557 153.085 30.7823C154.189 29.4229 155.681 28.7432 157.559 28.7432C159.403 28.7432 160.799 29.4229 161.747 30.7823C162.497 31.8622 162.875 33.1978 162.875 34.7838ZM160.164 34.0511C160.183 33.2137 159.997 32.4903 159.612 31.8794C159.12 31.0937 158.364 30.7015 157.347 30.7015C156.417 30.7015 155.661 31.0844 155.084 31.8529C154.611 32.4638 154.329 33.1965 154.243 34.0498H160.164V34.0511Z" fill="white"/>
<path d="M65.4 13.2613C65.4 14.8208 64.9293 15.9948 63.9893 16.7831C63.1186 17.5106 61.8813 17.8749 60.2786 17.8749C59.484 17.8749 58.804 17.8405 58.2346 17.7716V9.25051C58.9773 9.13126 59.7773 9.07031 60.6413 9.07031C62.168 9.07031 63.3186 9.40024 64.0946 10.0601C64.964 10.8061 65.4 11.8727 65.4 13.2613ZM63.9266 13.2997C63.9266 12.2887 63.6573 11.5136 63.1186 10.973C62.58 10.4337 61.7933 10.1634 60.7573 10.1634C60.3173 10.1634 59.9426 10.1926 59.632 10.2535V16.7315C59.804 16.758 60.1186 16.7699 60.576 16.7699C61.6453 16.7699 62.4706 16.4744 63.052 15.8835C63.6333 15.2925 63.9266 14.4313 63.9266 13.2997Z" fill="white"/>
<path d="M73.2119 14.6243C73.2119 15.585 72.9359 16.372 72.3839 16.9895C71.8052 17.6241 71.0386 17.9408 70.0812 17.9408C69.1586 17.9408 68.4239 17.6374 67.8759 17.0279C67.3292 16.4197 67.0559 15.6525 67.0559 14.7277C67.0559 13.7604 67.3372 12.9668 67.9026 12.3506C68.4679 11.7345 69.2279 11.4258 70.1852 11.4258C71.1079 11.4258 71.8492 11.7292 72.4106 12.3374C72.9439 12.9283 73.2119 13.6915 73.2119 14.6243ZM71.7626 14.6694C71.7626 14.093 71.6372 13.5988 71.3879 13.1867C71.0946 12.6885 70.6772 12.4394 70.1346 12.4394C69.5732 12.4394 69.1466 12.6885 68.8532 13.1867C68.6026 13.5988 68.4786 14.101 68.4786 14.6946C68.4786 15.2709 68.6039 15.7652 68.8532 16.1772C69.1559 16.6754 69.5772 16.9245 70.1212 16.9245C70.6546 16.9245 71.0732 16.6715 71.3746 16.164C71.6332 15.744 71.7626 15.2458 71.7626 14.6694Z" fill="white"/>
<path d="M83.6867 11.5527L81.7201 17.7988H80.4401L79.6254 15.0865C79.4187 14.4094 79.2507 13.7363 79.1201 13.0685H79.0947C78.9734 13.7549 78.8054 14.4267 78.5894 15.0865L77.7241 17.7988H76.4294L74.5801 11.5527H76.0161L76.7267 14.5221C76.8987 15.2243 77.0401 15.8934 77.1534 16.5268H77.1787C77.2827 16.0047 77.4547 15.3396 77.6974 14.5353L78.5894 11.5541H79.7281L80.5827 14.4717C80.7894 15.1832 80.9574 15.8683 81.0867 16.5281H81.1254C81.2201 15.8855 81.3627 15.2005 81.5521 14.4717L82.3147 11.5541H83.6867V11.5527Z" fill="white"/>
<path d="M90.9307 17.7981H89.5334V14.2206C89.5334 13.1182 89.112 12.567 88.2667 12.567C87.852 12.567 87.5174 12.7181 87.2574 13.0215C87 13.3249 86.8694 13.6827 86.8694 14.0921V17.7968H85.472V13.3368C85.472 12.7883 85.4547 12.1934 85.4214 11.5494H86.6494L86.7147 12.5259H86.7534C86.9161 12.2225 87.1587 11.9721 87.4774 11.772C87.856 11.5388 88.28 11.4209 88.744 11.4209C89.3307 11.4209 89.8187 11.609 90.2067 11.9867C90.6894 12.4491 90.9307 13.1394 90.9307 14.0563V17.7981Z" fill="white"/>
<path d="M94.7839 17.7985H93.3879V8.68652H94.7839V17.7985Z" fill="white"/>
<path d="M103.011 14.6243C103.011 15.585 102.735 16.372 102.183 16.9895C101.604 17.6241 100.836 17.9408 99.8801 17.9408C98.9561 17.9408 98.2214 17.6374 97.6747 17.0279C97.1281 16.4197 96.8547 15.6525 96.8547 14.7277C96.8547 13.7604 97.1361 12.9668 97.7014 12.3506C98.2667 11.7345 99.0267 11.4258 99.9827 11.4258C100.907 11.4258 101.647 11.7292 102.209 12.3374C102.743 12.9283 103.011 13.6915 103.011 14.6243ZM101.56 14.6694C101.56 14.093 101.435 13.5988 101.185 13.1867C100.893 12.6885 100.475 12.4394 99.9334 12.4394C99.3707 12.4394 98.9441 12.6885 98.6521 13.1867C98.4014 13.5988 98.2774 14.101 98.2774 14.6946C98.2774 15.2709 98.4027 15.7652 98.6521 16.1772C98.9547 16.6754 99.3761 16.9245 99.9201 16.9245C100.453 16.9245 100.871 16.6715 101.172 16.164C101.432 15.744 101.56 15.2458 101.56 14.6694Z" fill="white"/>
<path d="M109.773 17.799H108.519L108.415 17.0796H108.376C107.947 17.6533 107.335 17.9408 106.54 17.9408C105.947 17.9408 105.467 17.7513 105.105 17.375C104.777 17.0332 104.613 16.6079 104.613 16.103C104.613 15.3398 104.933 14.7582 105.577 14.3554C106.22 13.9526 107.124 13.7551 108.288 13.7644V13.6478C108.288 12.825 107.853 12.4142 106.983 12.4142C106.363 12.4142 105.816 12.5693 105.344 12.8767L105.06 11.9651C105.644 11.606 106.365 11.4258 107.216 11.4258C108.859 11.4258 109.683 12.287 109.683 14.0095V16.3097C109.683 16.9338 109.713 17.4307 109.773 17.799ZM108.323 15.6525V14.6893C106.781 14.6628 106.011 15.0828 106.011 15.948C106.011 16.274 106.099 16.5178 106.279 16.6807C106.459 16.8437 106.688 16.9245 106.961 16.9245C107.268 16.9245 107.555 16.8278 107.816 16.6357C108.079 16.4422 108.24 16.1971 108.3 15.8963C108.315 15.8288 108.323 15.7466 108.323 15.6525Z" fill="white"/>
<path d="M117.713 17.7986H116.473L116.408 16.7955H116.369C115.973 17.5587 115.299 17.9403 114.351 17.9403C113.593 17.9403 112.963 17.6449 112.463 17.0539C111.963 16.463 111.713 15.6958 111.713 14.7537C111.713 13.7427 111.984 12.9239 112.528 12.2985C113.055 11.7155 113.7 11.424 114.468 11.424C115.312 11.424 115.903 11.7062 116.239 12.272H116.265V8.68652H117.664V16.1158C117.664 16.724 117.68 17.2845 117.713 17.7986ZM116.265 15.1644V14.123C116.265 13.9428 116.252 13.7971 116.227 13.6858C116.148 13.3519 115.979 13.071 115.721 12.8444C115.461 12.6178 115.148 12.5038 114.787 12.5038C114.265 12.5038 113.857 12.7092 113.557 13.1213C113.26 13.5334 113.109 14.0594 113.109 14.702C113.109 15.3195 113.252 15.8203 113.539 16.2059C113.841 16.6167 114.249 16.822 114.76 16.822C115.219 16.822 115.585 16.6511 115.864 16.3079C116.133 15.9913 116.265 15.6096 116.265 15.1644Z" fill="white"/>
<path d="M129.664 14.6243C129.664 15.585 129.388 16.372 128.836 16.9895C128.257 17.6241 127.492 17.9408 126.533 17.9408C125.612 17.9408 124.877 17.6374 124.328 17.0279C123.781 16.4197 123.508 15.6525 123.508 14.7277C123.508 13.7604 123.789 12.9668 124.355 12.3506C124.92 11.7345 125.68 11.4258 126.639 11.4258C127.56 11.4258 128.303 11.7292 128.863 12.3374C129.396 12.9283 129.664 13.6915 129.664 14.6243ZM128.216 14.6694C128.216 14.093 128.091 13.5988 127.841 13.1867C127.547 12.6885 127.131 12.4394 126.587 12.4394C126.027 12.4394 125.6 12.6885 125.305 13.1867C125.055 13.5988 124.931 14.101 124.931 14.6946C124.931 15.2709 125.056 15.7652 125.305 16.1772C125.608 16.6754 126.029 16.9245 126.573 16.9245C127.107 16.9245 127.527 16.6715 127.828 16.164C128.085 15.744 128.216 15.2458 128.216 14.6694Z" fill="white"/>
<path d="M137.177 17.7981H135.781V14.2206C135.781 13.1182 135.36 12.567 134.513 12.567C134.099 12.567 133.764 12.7181 133.505 13.0215C133.247 13.3249 133.117 13.6827 133.117 14.0921V17.7968H131.719V13.3368C131.719 12.7883 131.703 12.1934 131.669 11.5494H132.896L132.961 12.5259H133C133.164 12.2225 133.407 11.9721 133.724 11.772C134.104 11.5388 134.527 11.4209 134.992 11.4209C135.577 11.4209 136.065 11.609 136.453 11.9867C136.937 12.4491 137.177 13.1394 137.177 14.0563V17.7981Z" fill="white"/>
<path d="M146.581 12.5927H145.043V15.627C145.043 16.3981 145.316 16.7837 145.857 16.7837C146.108 16.7837 146.316 16.7625 146.48 16.7188L146.516 17.7722C146.24 17.8755 145.877 17.9272 145.431 17.9272C144.879 17.9272 144.449 17.7602 144.139 17.4263C143.827 17.0924 143.672 16.5306 143.672 15.7423V12.5927H142.753V11.5526H143.672V10.4078L145.041 9.99707V11.5513H146.58V12.5927H146.581Z" fill="white"/>
<path d="M153.979 17.7985H152.58V14.2475C152.58 13.1279 152.159 12.5674 151.315 12.5674C150.667 12.5674 150.224 12.8921 149.981 13.5413C149.94 13.6778 149.916 13.8447 149.916 14.0408V17.7972H148.52V8.68652H149.916V12.4508H149.943C150.383 11.7658 151.013 11.424 151.831 11.424C152.409 11.424 152.888 11.6121 153.268 11.9897C153.741 12.4601 153.979 13.1597 153.979 14.0846V17.7985Z" fill="white"/>
<path d="M161.609 14.3798C161.609 14.6289 161.591 14.8382 161.557 15.0091H157.367C157.385 15.6266 157.585 16.097 157.973 16.4229C158.328 16.7144 158.785 16.8602 159.345 16.8602C159.965 16.8602 160.531 16.7621 161.04 16.5647L161.259 17.5293C160.663 17.7863 159.961 17.9149 159.149 17.9149C158.176 17.9149 157.409 17.63 156.855 17.0602C156.297 16.4905 156.021 15.726 156.021 14.7667C156.021 13.8246 156.279 13.0402 156.797 12.4148C157.339 11.747 158.071 11.4131 158.995 11.4131C159.899 11.4131 160.585 11.747 161.049 12.4148C161.424 12.9448 161.609 13.6007 161.609 14.3798ZM160.276 14.0207C160.287 13.6086 160.195 13.2535 160.005 12.9541C159.763 12.5685 159.393 12.375 158.893 12.375C158.437 12.375 158.065 12.5632 157.781 12.9408C157.549 13.2416 157.412 13.6007 157.367 14.0207H160.276Z" fill="white"/>
</svg>
