<svg width="26" height="27" viewBox="0 0 26 27" fill="none" xmlns="http://www.w3.org/2000/svg">
<path d="M23.1425 20.433L23.5755 20.683L23.8255 20.25C24.9115 18.369 25.4886 16.2374 25.5 14.0654C25.5114 11.8935 24.9566 9.75599 23.8903 7.8637C22.8241 5.9714 21.2831 4.3896 19.4194 3.27418C17.5557 2.15876 15.4335 1.54822 13.2619 1.50273L12.762 1.49226L12.7516 1.99215L12.6661 6.07126L12.6557 6.57115L13.1555 6.58162C14.4446 6.60862 15.7043 6.97104 16.8106 7.63315C17.9169 8.29526 18.8316 9.23422 19.4646 10.3575C20.0975 11.4808 20.4268 12.7496 20.42 14.0388C20.4133 15.3281 20.0707 16.5934 19.4261 17.71L19.1761 18.143L19.6091 18.393L23.1425 20.433Z" fill="#E5E6E4" stroke="white"/>
<path d="M2.35742 19.5669L1.92441 19.8169L2.17441 20.25C3.26042 22.131 4.81782 23.6966 6.69313 24.7924C8.56844 25.8882 10.6969 26.4765 12.8688 26.4993C15.0407 26.522 17.1811 25.9784 19.0789 24.9221C20.9768 23.8658 22.5666 22.3332 23.6918 20.4753L23.9508 20.0476L23.5231 19.7886L20.0332 17.6751L19.6055 17.416L19.3465 17.8437C18.6786 18.9466 17.7349 19.8563 16.6083 20.4834C15.4818 21.1104 14.2113 21.4331 12.922 21.4196C11.6328 21.4061 10.3693 21.0568 9.25613 20.4064C8.14295 19.7559 7.21847 18.8265 6.57382 17.71L6.32382 17.2769L5.89081 17.5269L2.35742 19.5669Z" fill="#E5E6E4" stroke="white"/>
<mask id="path-3-outside-1_2735_8432" maskUnits="userSpaceOnUse" x="4.76995e-08" y="1" width="14" height="21" fill="black">
<rect fill="white" x="4.76995e-08" y="1" width="14" height="21"/>
<path d="M13 2C10.9149 2 8.86571 2.54332 7.0545 3.57642C5.24328 4.60952 3.73252 6.09674 2.6711 7.8915C1.60968 9.68627 1.03423 11.7266 1.00148 13.8115C0.968728 15.8964 1.4798 17.9538 2.48432 19.781L6.05965 17.8155C5.39667 16.6095 5.05936 15.2516 5.08098 13.8756C5.10259 12.4996 5.48239 11.1529 6.18292 9.96839C6.88346 8.78385 7.88057 7.80228 9.07597 7.12044C10.2714 6.43859 11.6238 6.08 13 6.08L13 2Z"/>
</mask>
<path d="M13 2C10.9149 2 8.86571 2.54332 7.0545 3.57642C5.24328 4.60952 3.73252 6.09674 2.6711 7.8915C1.60968 9.68627 1.03423 11.7266 1.00148 13.8115C0.968728 15.8964 1.4798 17.9538 2.48432 19.781L6.05965 17.8155C5.39667 16.6095 5.05936 15.2516 5.08098 13.8756C5.10259 12.4996 5.48239 11.1529 6.18292 9.96839C6.88346 8.78385 7.88057 7.80228 9.07597 7.12044C10.2714 6.43859 11.6238 6.08 13 6.08L13 2Z" fill="#E5E6E4"/>
<path d="M13 2C10.9149 2 8.86571 2.54332 7.0545 3.57642C5.24328 4.60952 3.73252 6.09674 2.6711 7.8915C1.60968 9.68627 1.03423 11.7266 1.00148 13.8115C0.968728 15.8964 1.4798 17.9538 2.48432 19.781L6.05965 17.8155C5.39667 16.6095 5.05936 15.2516 5.08098 13.8756C5.10259 12.4996 5.48239 11.1529 6.18292 9.96839C6.88346 8.78385 7.88057 7.80228 9.07597 7.12044C10.2714 6.43859 11.6238 6.08 13 6.08L13 2Z" stroke="white" stroke-width="2" mask="url(#path-3-outside-1_2735_8432)"/>
</svg>
