<svg width="26" height="27" viewBox="0 0 26 27" fill="none" xmlns="http://www.w3.org/2000/svg">
<path d="M23.1422 20.433L23.5752 20.683L23.8252 20.25C24.9112 18.369 25.4884 16.2374 25.4997 14.0654C25.5111 11.8935 24.9563 9.75599 23.8901 7.8637C22.8238 5.9714 21.2829 4.3896 19.4192 3.27418C17.5554 2.15876 15.4332 1.54822 13.2617 1.50273L12.7618 1.49226L12.7513 1.99215L12.6659 6.07126L12.6554 6.57115L13.1553 6.58162C14.4443 6.60862 15.7041 6.97104 16.8104 7.63315C17.9167 8.29526 18.8314 9.23422 19.4643 10.3575C20.0972 11.4808 20.4266 12.7496 20.4198 14.0388C20.4131 15.3281 20.0705 16.5934 19.4258 17.71L19.1758 18.143L19.6088 18.393L23.1422 20.433Z" fill="#BA44F1" stroke="white"/>
<path d="M2.35767 19.5669L1.92465 19.8169L2.17465 20.25C3.26066 22.131 4.81807 23.6966 6.69338 24.7924C8.56869 25.8882 10.6972 26.4765 12.8691 26.4993C15.041 26.522 17.1813 25.9784 19.0792 24.9221C20.977 23.8658 22.5669 22.3332 23.692 20.4753L23.951 20.0476L23.5234 19.7886L20.0335 17.6751L19.6058 17.416L19.3468 17.8437C18.6789 18.9466 17.7351 19.8563 16.6086 20.4834C15.482 21.1104 14.2115 21.4331 12.9223 21.4196C11.633 21.4061 10.3696 21.0568 9.25638 20.4064C8.14319 19.7559 7.21872 18.8265 6.57406 17.71L6.32406 17.2769L5.89105 17.5269L2.35767 19.5669Z" fill="#BA44F1" stroke="white"/>
<mask id="path-3-outside-1_2735_9718" maskUnits="userSpaceOnUse" x="4.76995e-08" y="1" width="14" height="21" fill="black">
<rect fill="white" x="4.76995e-08" y="1" width="14" height="21"/>
<path d="M13 2C10.9149 2 8.86571 2.54332 7.0545 3.57642C5.24328 4.60952 3.73252 6.09674 2.6711 7.8915C1.60968 9.68627 1.03423 11.7266 1.00148 13.8115C0.968728 15.8964 1.4798 17.9538 2.48432 19.781L6.05965 17.8155C5.39667 16.6095 5.05936 15.2516 5.08098 13.8756C5.10259 12.4996 5.48239 11.1529 6.18292 9.96839C6.88346 8.78385 7.88057 7.80228 9.07597 7.12044C10.2714 6.43859 11.6238 6.08 13 6.08L13 2Z"/>
</mask>
<path d="M13 2C10.9149 2 8.86571 2.54332 7.0545 3.57642C5.24328 4.60952 3.73252 6.09674 2.6711 7.8915C1.60968 9.68627 1.03423 11.7266 1.00148 13.8115C0.968728 15.8964 1.4798 17.9538 2.48432 19.781L6.05965 17.8155C5.39667 16.6095 5.05936 15.2516 5.08098 13.8756C5.10259 12.4996 5.48239 11.1529 6.18292 9.96839C6.88346 8.78385 7.88057 7.80228 9.07597 7.12044C10.2714 6.43859 11.6238 6.08 13 6.08L13 2Z" fill="#E5E6E4"/>
<path d="M13 2C10.9149 2 8.86571 2.54332 7.0545 3.57642C5.24328 4.60952 3.73252 6.09674 2.6711 7.8915C1.60968 9.68627 1.03423 11.7266 1.00148 13.8115C0.968728 15.8964 1.4798 17.9538 2.48432 19.781L6.05965 17.8155C5.39667 16.6095 5.05936 15.2516 5.08098 13.8756C5.10259 12.4996 5.48239 11.1529 6.18292 9.96839C6.88346 8.78385 7.88057 7.80228 9.07597 7.12044C10.2714 6.43859 11.6238 6.08 13 6.08L13 2Z" stroke="white" stroke-width="2" mask="url(#path-3-outside-1_2735_9718)"/>
</svg>
