<svg width="24" height="24" viewBox="0 0 24 24" fill="none" xmlns="http://www.w3.org/2000/svg">
<path d="M12 4L5 7L12 10L19 7L12 4Z" stroke="#181715" stroke-width="2" stroke-linejoin="round"/>
<path fill-rule="evenodd" clip-rule="evenodd" d="M7.02545 10.044L4.60608 11.0808C4.2384 11.2384 4 11.6 4 12C4 12.4 4.2384 12.7616 4.60608 12.9191L11.6061 15.9191C11.8576 16.0269 12.1424 16.0269 12.3939 15.9191L19.3939 12.9191C19.7616 12.7616 20 12.4 20 12C20 11.6 19.7616 11.2384 19.3939 11.0808L16.9746 10.044L14.436 11.1319L16.4614 12L12 13.912L7.53859 12L9.56404 11.1319L7.02545 10.044Z" fill="#181715"/>
<path fill-rule="evenodd" clip-rule="evenodd" d="M7.02545 15.044L4.60608 16.0808C4.2384 16.2384 4 16.6 4 17C4 17.4 4.2384 17.7616 4.60608 17.9191L11.6061 20.9191C11.8576 21.0269 12.1424 21.0269 12.3939 20.9191L19.3939 17.9191C19.7616 17.7616 20 17.4 20 17C20 16.6 19.7616 16.2384 19.3939 16.0808L16.9746 15.044L14.436 16.1319L16.4614 17L12 18.912L7.53859 17L9.56404 16.1319L7.02545 15.044Z" fill="#181715"/>
</svg>
