<svg width="772" height="619" viewBox="0 0 772 619" fill="none" xmlns="http://www.w3.org/2000/svg">
<g opacity="0.5">
<mask id="path-1-inside-1_2379_4792" fill="white">
<path d="M0 1158H139.152H261.222H510.778H632.848H772V0H632.848H510.778H261.222H139.152H0V1158ZM24.9973 5.43073C24.9973 8.77272 24.1641 14.6212 20.4145 19.6342C17.0815 23.8117 12.082 26.3182 5.4161 27.1537V5.43073H24.9973ZM378.709 581.924C379.959 584.849 382.459 586.937 385.792 586.937C389.125 586.937 392.041 584.849 392.874 581.924H497.03C495.78 642.498 446.202 690.957 385.792 690.957C325.382 690.957 275.804 642.08 274.554 581.924H378.709ZM393.291 576.494C392.041 573.569 389.541 571.481 386.208 571.481C382.875 571.481 379.959 573.569 379.126 576.494H274.97C276.22 515.92 325.798 467.461 386.208 467.461C446.618 467.461 496.196 516.338 497.446 576.494H393.291ZM5.4161 1131.26C12.082 1132.1 17.0815 1134.61 20.4145 1138.78C24.5807 1143.8 24.9973 1149.65 24.9973 1152.99H5.4161V1131.26ZM266.638 1152.99V1080.72H505.362V1152.99H266.638ZM510.778 1075.29H261.222V1152.99H144.568V957.898H287.052H484.531H627.016V1152.99H510.362V1075.29H510.778ZM297.468 952.468C318.716 924.896 351.212 908.604 385.792 908.604C420.371 908.604 453.284 924.896 474.116 952.468H297.468ZM632.432 952.468H480.781C458.701 921.554 423.704 903.591 385.792 903.591C348.296 903.591 312.883 921.972 290.802 952.468H139.152V1152.57H30.4134C30.4134 1148.39 29.5801 1141.29 24.5807 1135.02C20.4145 1129.59 13.7485 1126.67 5.4161 1125.42V581.924H269.138C270.388 645.422 322.465 696.387 385.792 696.387C449.118 696.387 501.196 645.422 502.446 581.924H766.167V1125.83C757.835 1127.09 751.169 1130.01 747.003 1135.44C742.003 1141.71 741.17 1148.81 741.17 1152.99H632.432V952.468ZM746.586 1152.99C746.586 1149.65 747.419 1143.8 751.169 1138.78C754.502 1134.61 759.501 1132.1 766.167 1131.26V1152.99H746.586ZM766.584 27.1537C759.918 26.3182 754.919 23.8117 751.586 19.6342C747.419 14.6212 747.003 8.77272 747.003 5.43073H766.584V27.1537ZM505.362 5.43073V77.7013H266.638V5.43073H505.362ZM261.222 83.132H510.778V5.43073H627.432V200.519H484.948H287.469H144.984V5.43073H261.638V83.132H261.222ZM474.116 205.95C452.868 233.522 420.371 249.814 385.792 249.814C351.212 249.814 318.299 233.522 297.468 205.95H474.116ZM139.152 205.95H290.802C312.883 236.864 347.879 254.827 385.792 254.827C423.288 254.827 458.701 236.446 480.781 205.95H632.432V5.43073H741.17C741.17 9.60822 742.003 16.71 747.003 22.9762C751.169 28.4069 757.835 31.3312 766.167 32.5844V576.494H502.446C501.196 512.996 449.118 462.03 385.792 462.03C322.465 462.03 270.388 512.996 269.138 576.494H5.4161V32.5844C13.7485 31.3312 20.4145 28.4069 24.5807 22.9762C29.5801 16.71 30.4134 9.60822 30.4134 5.43073H139.152V205.95Z"/>
</mask>
<path d="M0 1158H139.152H261.222H510.778H632.848H772V0H632.848H510.778H261.222H139.152H0V1158ZM24.9973 5.43073C24.9973 8.77272 24.1641 14.6212 20.4145 19.6342C17.0815 23.8117 12.082 26.3182 5.4161 27.1537V5.43073H24.9973ZM378.709 581.924C379.959 584.849 382.459 586.937 385.792 586.937C389.125 586.937 392.041 584.849 392.874 581.924H497.03C495.78 642.498 446.202 690.957 385.792 690.957C325.382 690.957 275.804 642.08 274.554 581.924H378.709ZM393.291 576.494C392.041 573.569 389.541 571.481 386.208 571.481C382.875 571.481 379.959 573.569 379.126 576.494H274.97C276.22 515.92 325.798 467.461 386.208 467.461C446.618 467.461 496.196 516.338 497.446 576.494H393.291ZM5.4161 1131.26C12.082 1132.1 17.0815 1134.61 20.4145 1138.78C24.5807 1143.8 24.9973 1149.65 24.9973 1152.99H5.4161V1131.26ZM266.638 1152.99V1080.72H505.362V1152.99H266.638ZM510.778 1075.29H261.222V1152.99H144.568V957.898H287.052H484.531H627.016V1152.99H510.362V1075.29H510.778ZM297.468 952.468C318.716 924.896 351.212 908.604 385.792 908.604C420.371 908.604 453.284 924.896 474.116 952.468H297.468ZM632.432 952.468H480.781C458.701 921.554 423.704 903.591 385.792 903.591C348.296 903.591 312.883 921.972 290.802 952.468H139.152V1152.57H30.4134C30.4134 1148.39 29.5801 1141.29 24.5807 1135.02C20.4145 1129.59 13.7485 1126.67 5.4161 1125.42V581.924H269.138C270.388 645.422 322.465 696.387 385.792 696.387C449.118 696.387 501.196 645.422 502.446 581.924H766.167V1125.83C757.835 1127.09 751.169 1130.01 747.003 1135.44C742.003 1141.71 741.17 1148.81 741.17 1152.99H632.432V952.468ZM746.586 1152.99C746.586 1149.65 747.419 1143.8 751.169 1138.78C754.502 1134.61 759.501 1132.1 766.167 1131.26V1152.99H746.586ZM766.584 27.1537C759.918 26.3182 754.919 23.8117 751.586 19.6342C747.419 14.6212 747.003 8.77272 747.003 5.43073H766.584V27.1537ZM505.362 5.43073V77.7013H266.638V5.43073H505.362ZM261.222 83.132H510.778V5.43073H627.432V200.519H484.948H287.469H144.984V5.43073H261.638V83.132H261.222ZM474.116 205.95C452.868 233.522 420.371 249.814 385.792 249.814C351.212 249.814 318.299 233.522 297.468 205.95H474.116ZM139.152 205.95H290.802C312.883 236.864 347.879 254.827 385.792 254.827C423.288 254.827 458.701 236.446 480.781 205.95H632.432V5.43073H741.17C741.17 9.60822 742.003 16.71 747.003 22.9762C751.169 28.4069 757.835 31.3312 766.167 32.5844V576.494H502.446C501.196 512.996 449.118 462.03 385.792 462.03C322.465 462.03 270.388 512.996 269.138 576.494H5.4161V32.5844C13.7485 31.3312 20.4145 28.4069 24.5807 22.9762C29.5801 16.71 30.4134 9.60822 30.4134 5.43073H139.152V205.95Z" stroke="white" stroke-width="6" stroke-miterlimit="10" stroke-linejoin="round" mask="url(#path-1-inside-1_2379_4792)"/>
</g>
</svg>
