<svg width="52" height="46" viewBox="0 0 52 46" fill="none" xmlns="http://www.w3.org/2000/svg">
<path d="M51.488 0.968018V9.03202C49.184 9.32002 47.216 10.232 45.584 11.768C44.048 13.304 42.848 15.272 41.984 17.672C41.216 19.976 40.832 22.472 40.832 25.16H50.624V45.032H30.464V27.032C30.464 21.272 31.424 16.568 33.344 12.92C35.36 9.27202 37.952 6.48802 41.12 4.56802C44.288 2.64802 47.744 1.44802 51.488 0.968018ZM21.392 0.968018V9.03202C19.184 9.32002 17.264 10.232 15.632 11.768C14.096 13.304 12.896 15.272 12.032 17.672C11.264 19.976 10.88 22.472 10.88 25.16H20.672V45.032H0.511963V27.032C0.511963 21.272 1.47196 16.568 3.39196 12.92C5.40796 9.27202 7.99996 6.48802 11.168 4.56802C14.336 2.64802 17.744 1.44802 21.392 0.968018Z" fill="#9F6C05"/>
</svg>
