<svg width="24" height="24" viewBox="0 0 24 24" fill="none" xmlns="http://www.w3.org/2000/svg">
<path fill-rule="evenodd" clip-rule="evenodd" d="M16.5 0H7.5C3.3585 0 0 3.3585 0 7.5V16.5C0 20.6415 3.3585 24 7.5 24H16.5C20.6415 24 24 20.6415 24 16.5V7.5C24 3.3585 20.6415 0 16.5 0ZM21.75 16.5C21.75 19.395 19.395 21.75 16.5 21.75H7.5C4.605 21.75 2.25 19.395 2.25 16.5V7.5C2.25 4.605 4.605 2.25 7.5 2.25H16.5C19.395 2.25 21.75 4.605 21.75 7.5V16.5ZM12 6C8.6865 6 6 8.6865 6 12C6 15.3135 8.6865 18 12 18C15.3135 18 18 15.3135 18 12C18 8.6865 15.3135 6 12 6ZM12 15.75C9.933 15.75 8.25 14.067 8.25 12C8.25 9.9315 9.933 8.25 12 8.25C14.067 8.25 15.75 9.9315 15.75 12C15.75 14.067 14.067 15.75 12 15.75ZM19.2496 5.55C19.2496 5.99155 18.8917 6.3495 18.4501 6.3495C18.0086 6.3495 17.6506 5.99155 17.6506 5.55C17.6506 5.10845 18.0086 4.75051 18.4501 4.75051C18.8917 4.75051 19.2496 5.10845 19.2496 5.55Z" fill="#CFD2CD"/>
</svg>
