<svg width="20" height="12" viewBox="0 0 20 12" fill="none" xmlns="http://www.w3.org/2000/svg">
<path d="M9.26539e-05 6.01559C0.00245242 6.16585 0.0387744 6.31364 0.106347 6.44792C0.173919 6.58219 0.270995 6.6995 0.390327 6.79106C0.392274 6.79237 0.394225 6.79366 0.396181 6.79496L5.30143 11.6933C5.39348 11.789 5.50374 11.8655 5.62575 11.9181C5.74776 11.9708 5.87906 11.9986 6.01196 11.9999C6.14487 12.0013 6.27671 11.9762 6.39977 11.926C6.52282 11.8758 6.63461 11.8016 6.7286 11.7078C6.82258 11.6139 6.89687 11.5023 6.94711 11.3794C6.99735 11.2565 7.02253 11.1249 7.02118 10.9922C7.01982 10.8594 6.99197 10.7283 6.93923 10.6065C6.8865 10.4847 6.80996 10.3746 6.71408 10.2826L3.4244 6.99759L18.9868 6.99759C19.1191 6.99946 19.2506 6.97504 19.3734 6.92574C19.4963 6.87645 19.6081 6.80326 19.7024 6.71044C19.7966 6.61762 19.8715 6.50702 19.9226 6.38506C19.9737 6.26309 20 6.13221 20 6C20 5.86779 19.9737 5.73691 19.9226 5.61494C19.8715 5.49298 19.7966 5.38238 19.7024 5.28956C19.6081 5.19674 19.4963 5.12355 19.3734 5.07426C19.2506 5.02496 19.1191 5.00054 18.9868 5.00241L3.4244 5.00241L6.71408 1.71737C6.80996 1.62545 6.8865 1.51535 6.93924 1.39351C6.99197 1.27168 7.01983 1.14056 7.02118 1.00784C7.02253 0.875122 6.99735 0.743467 6.94711 0.620586C6.89687 0.497705 6.82258 0.38607 6.7286 0.292218C6.63461 0.198366 6.52282 0.124182 6.39977 0.0740144C6.27671 0.0238464 6.14487 -0.00129822 6.01196 5.21893e-05C5.87906 0.0014026 5.74776 0.0292203 5.62575 0.0818784C5.50374 0.134537 5.39348 0.210974 5.30143 0.306717L0.390327 5.21089C0.267082 5.30547 0.167633 5.42745 0.0998883 5.56714C0.032144 5.70684 -0.00202694 5.86039 9.26539e-05 6.01559Z" fill="#181715"/>
</svg>
