<svg width="16" height="16" viewBox="0 0 16 16" fill="none" xmlns="http://www.w3.org/2000/svg">
<path d="M13.3335 2V1H14.3335V2H13.3335ZM7.37394 9.37377C6.98341 9.7643 6.35025 9.7643 5.95972 9.37377C5.5692 8.98325 5.5692 8.35008 5.95972 7.95956L7.37394 9.37377ZM12.3335 7.33333V2H14.3335V7.33333H12.3335ZM13.3335 3H8.00016V1H13.3335V3ZM14.0406 2.70711L7.37394 9.37377L5.95972 7.95956L12.6264 1.29289L14.0406 2.70711Z" fill="#CFD2CD"/>
<path d="M12.6665 9.99996V9.99996C12.6665 10.3095 12.6665 10.4643 12.6551 10.5948C12.5282 12.0451 11.3783 13.195 9.92797 13.3219C9.79749 13.3333 9.64271 13.3333 9.33317 13.3333H7.33317C5.14702 13.3333 4.05394 13.3333 3.27911 12.7907C2.99244 12.59 2.74311 12.3407 2.54238 12.054C1.99984 11.2792 1.99984 10.1861 1.99984 7.99996V5.99996C1.99984 5.69042 1.99984 5.53564 2.01125 5.40516C2.13814 3.95482 3.28803 2.80493 4.73837 2.67804C4.86885 2.66663 5.02363 2.66663 5.33317 2.66663V2.66663" stroke="#CFD2CD" stroke-width="2" stroke-linecap="round"/>
</svg>
