<svg width="256" height="153" viewBox="0 0 256 153" fill="none" xmlns="http://www.w3.org/2000/svg">
<g clip-path="url(#clip0_3381_15539)">
<path d="M114.801 149.763C112.889 149.761 111.008 150.247 109.336 151.175H120.251C118.584 150.247 116.708 149.761 114.801 149.763Z" fill="#E5E6E4"/>
<path d="M135.983 148.35C132.789 148.347 129.672 149.333 127.062 151.175H144.891C142.284 149.336 139.172 148.349 135.983 148.35Z" fill="#E5E6E4"/>
<path d="M255.964 130.475C255.166 116.013 243.547 104.222 229.097 103.234C222.436 102.766 215.818 104.614 210.364 108.467C204.91 112.319 200.955 117.938 199.169 124.372C198.818 124.359 198.468 124.345 198.114 124.345C191.86 124.346 185.774 126.372 180.768 130.12C175.761 133.868 172.103 139.136 170.339 145.136C166.195 143.316 161.564 142.921 157.172 144.013C152.779 145.106 148.873 147.624 146.064 151.175H236.361C247.455 151.175 256.437 141.986 255.984 130.902C255.978 130.76 255.972 130.617 255.964 130.475Z" fill="#E5E6E4"/>
<path d="M253.618 150.876H0V151.473H253.618V150.876Z" fill="#CFD2CD"/>
<path d="M84.6415 53.842C84.6415 53.842 73.1302 50.2563 74.8973 56.1557C76.6645 62.0551 86.3603 59.0752 86.3603 59.0752L84.6415 53.842Z" fill="#FFEBC2"/>
<path d="M128.645 31.6989C128.645 31.6989 122.746 23.6373 117.014 32.0063C111.272 40.3917 105.932 47.2757 105.932 47.2757L91.6695 51.9261L83.418 52.6582L85.6911 59.9943L109.683 56.5138C109.683 56.5138 136.393 40.6473 128.645 31.6989Z" fill="#9B0819"/>
<path d="M102.313 76.3439C102.313 76.3439 93.3511 82.6171 93.9485 88.2929C94.546 93.9687 98.4294 109.502 98.4294 109.502L106.495 108.308C106.495 108.308 107.391 96.3585 104.404 91.8776L118.743 83.812L102.313 76.3439Z" fill="#FFEBC2"/>
<path d="M122.179 91.1309C122.179 91.1309 121.581 102.184 123.075 106.665C124.568 111.145 126.062 127.874 126.062 127.874H134.426C134.426 127.874 138.31 113.237 133.53 106.665C133.53 106.665 132.037 98.0016 136.219 93.8194L122.179 91.1309Z" fill="#FFEBC2"/>
<path d="M120.237 60.5114C120.237 60.5114 100.82 72.7591 100.82 76.6426L116.354 89.4878L121.731 83.5133L121.134 92.475L137.862 95.761C137.862 95.761 143.837 73.0579 143.538 72.1617C143.239 71.2655 142.343 58.1216 142.343 58.1216L120.237 60.5114Z" fill="#181715"/>
<path d="M106.495 106.814L97.832 108.606L99.3712 114.934C100.129 118.048 100.215 121.288 99.6244 124.439C99.6244 124.439 108.586 126.829 108.586 125.634C108.586 124.439 106.495 119.659 107.093 116.373C107.69 113.087 106.495 106.814 106.495 106.814Z" fill="#EDF67D"/>
<path d="M110.976 129.218C110.678 128.023 108.196 122.606 108.092 123.522C107.989 124.439 103.209 125.932 101.417 124.14C101.417 124.14 99.0273 122.049 98.1312 124.14C97.235 126.231 95.4426 129.816 95.4426 129.816C95.4426 129.816 87.377 133.699 88.5719 135.79C88.8136 136.213 89.4832 136.392 90.3973 136.407C90.3759 136.463 90.3647 136.521 90.3643 136.581V136.792C90.3643 136.923 90.4161 137.048 90.5083 137.14C90.6005 137.232 90.7255 137.284 90.8559 137.284H91.0676C91.198 137.284 91.323 137.232 91.4152 137.14C91.5074 137.048 91.5592 136.923 91.5592 136.792V136.581C91.5587 136.504 91.5403 136.429 91.5055 136.362C91.7498 136.34 92.0033 136.312 92.2639 136.278C92.1949 136.364 92.1571 136.47 92.1566 136.581V136.792C92.1567 136.923 92.2084 137.048 92.3006 137.14C92.3928 137.232 92.5179 137.284 92.6483 137.284H92.8599C92.9903 137.284 93.1154 137.232 93.2076 137.14C93.2998 137.048 93.3515 136.923 93.3516 136.792V136.581C93.3513 136.493 93.3276 136.407 93.2829 136.332C93.2382 136.257 93.1741 136.195 93.0973 136.153C93.7849 136.038 94.5025 135.892 95.2161 135.73C95.1692 135.806 95.1443 135.894 95.1439 135.983V136.195C95.1439 136.325 95.1957 136.45 95.2879 136.543C95.3801 136.635 95.5051 136.687 95.6355 136.687H95.8472C95.9776 136.687 96.1026 136.635 96.1948 136.543C96.287 136.45 96.3388 136.325 96.3388 136.195V135.983C96.3387 135.888 96.3111 135.795 96.2592 135.716C96.2073 135.636 96.1335 135.573 96.0466 135.535C96.5817 135.404 97.1063 135.268 97.6055 135.133C97.5589 135.209 97.5341 135.297 97.5337 135.386V135.597C97.5337 135.728 97.5855 135.853 97.6777 135.945C97.7699 136.037 97.8949 136.089 98.0253 136.089H98.237C98.3674 136.089 98.4924 136.037 98.5846 135.945C98.6768 135.853 98.7286 135.728 98.7286 135.597V135.386C98.7284 135.281 98.6947 135.18 98.6325 135.095C98.5703 135.011 98.4828 134.95 98.3829 134.919C100.137 134.425 101.417 133.998 101.417 133.998C101.417 133.998 102.903 133.457 104.703 132.727V132.909C104.703 133.039 104.755 133.164 104.847 133.257C104.939 133.349 105.064 133.401 105.195 133.401H105.406C105.537 133.401 105.662 133.349 105.754 133.257C105.846 133.164 105.898 133.039 105.898 132.909V132.697C105.898 132.623 105.881 132.549 105.848 132.482C105.815 132.416 105.767 132.357 105.708 132.312C106.069 132.16 106.434 132.004 106.794 131.845V132.013C106.794 132.143 106.846 132.268 106.938 132.36C107.03 132.453 107.155 132.504 107.286 132.504H107.497C107.628 132.504 107.753 132.453 107.845 132.36C107.937 132.268 107.989 132.143 107.989 132.013V131.801C107.989 131.722 107.97 131.644 107.933 131.574C107.897 131.504 107.844 131.444 107.779 131.399C108.169 131.217 108.544 131.035 108.89 130.857C108.889 130.873 108.885 130.889 108.885 130.905V131.117C108.885 131.247 108.937 131.372 109.029 131.464C109.121 131.556 109.247 131.608 109.377 131.608H109.589C109.719 131.608 109.844 131.556 109.936 131.464C110.028 131.372 110.08 131.247 110.08 131.117V130.905C110.08 130.792 110.041 130.682 109.969 130.594C109.898 130.506 109.798 130.446 109.687 130.423C110.522 129.938 111.049 129.508 110.976 129.218Z" fill="#006EF5"/>
<path d="M135.024 126.53L125.56 125.932C125.56 125.932 126.134 135.79 124.986 139.076C123.839 142.362 124.413 143.557 124.413 143.557L132.729 144.155L135.024 126.53Z" fill="#EDF67D"/>
<path d="M135.141 148.317C135.098 147.086 133.8 141.27 133.508 142.145C133.216 143.02 128.23 143.484 126.85 141.357C126.85 141.357 124.949 138.814 123.637 140.672C122.324 142.53 119.824 145.663 119.824 145.663C119.824 145.663 111.126 147.779 111.858 150.073C112.006 150.537 112.624 150.851 113.515 151.057C113.482 151.107 113.459 151.162 113.446 151.22L113.402 151.427C113.375 151.555 113.4 151.688 113.471 151.797C113.542 151.906 113.653 151.983 113.781 152.01L113.988 152.054C114.115 152.082 114.248 152.057 114.358 151.986C114.467 151.915 114.544 151.804 114.571 151.676L114.615 151.469C114.631 151.394 114.628 151.317 114.608 151.244C114.852 151.274 115.105 151.299 115.367 151.32C115.282 151.389 115.223 151.486 115.199 151.594L115.155 151.801C115.128 151.928 115.153 152.061 115.224 152.171C115.295 152.28 115.406 152.357 115.534 152.384L115.741 152.428C115.868 152.455 116.001 152.431 116.111 152.36C116.22 152.289 116.297 152.177 116.324 152.05L116.368 151.843C116.386 151.757 116.381 151.668 116.353 151.585C116.325 151.502 116.275 151.428 116.209 151.371C116.905 151.402 117.637 151.409 118.369 151.4C118.307 151.464 118.265 151.545 118.246 151.632L118.201 151.839C118.174 151.967 118.199 152.1 118.27 152.209C118.341 152.319 118.452 152.395 118.58 152.423L118.787 152.467C118.914 152.494 119.047 152.469 119.157 152.398C119.266 152.327 119.343 152.216 119.37 152.088L119.414 151.881C119.434 151.788 119.426 151.692 119.392 151.603C119.358 151.514 119.299 151.437 119.222 151.382C119.773 151.366 120.314 151.342 120.83 151.314C120.769 151.379 120.726 151.459 120.707 151.546L120.663 151.753C120.636 151.881 120.661 152.014 120.732 152.123C120.803 152.233 120.914 152.309 121.042 152.337L121.249 152.381C121.376 152.408 121.509 152.383 121.619 152.312C121.728 152.241 121.805 152.13 121.832 152.002L121.876 151.795C121.898 151.693 121.886 151.587 121.843 151.491C121.799 151.396 121.727 151.317 121.635 151.266C123.454 151.149 124.795 150.999 124.795 150.999C124.795 150.999 126.361 150.78 128.274 150.44L128.236 150.619C128.208 150.746 128.233 150.879 128.304 150.989C128.375 151.098 128.486 151.175 128.614 151.202L128.821 151.246C128.948 151.273 129.082 151.249 129.191 151.178C129.3 151.107 129.377 150.995 129.404 150.868L129.448 150.661C129.464 150.588 129.462 150.512 129.444 150.44C129.426 150.368 129.391 150.301 129.343 150.244C129.728 150.171 130.117 150.094 130.503 150.014L130.468 150.178C130.44 150.306 130.465 150.439 130.536 150.548C130.607 150.658 130.718 150.734 130.846 150.761L131.053 150.806C131.18 150.833 131.314 150.808 131.423 150.737C131.532 150.666 131.609 150.555 131.636 150.427L131.68 150.22C131.697 150.143 131.694 150.063 131.673 149.987C131.652 149.91 131.613 149.841 131.558 149.783C131.978 149.686 132.383 149.587 132.758 149.485C132.754 149.5 132.747 149.515 132.744 149.531L132.7 149.738C132.672 149.865 132.697 149.998 132.768 150.108C132.839 150.217 132.95 150.294 133.078 150.321L133.285 150.365C133.412 150.392 133.546 150.368 133.655 150.297C133.764 150.226 133.841 150.114 133.868 149.987L133.912 149.78C133.936 149.669 133.921 149.553 133.869 149.453C133.817 149.352 133.732 149.272 133.628 149.227C134.546 148.926 135.151 148.615 135.141 148.317Z" fill="#006EF5"/>
<path d="M120.237 21.6772C125.022 21.6772 128.9 17.7986 128.9 13.0141C128.9 8.22965 125.022 4.35107 120.237 4.35107C115.453 4.35107 111.574 8.22965 111.574 13.0141C111.574 17.7986 115.453 21.6772 120.237 21.6772Z" fill="#FFEBC2"/>
<path d="M128.004 12.1179C128.004 12.1179 132.784 18.0924 135.173 17.7937L124.718 25.8593C124.718 25.8593 123.523 20.781 122.03 20.1835C120.536 19.5861 128.004 12.1179 128.004 12.1179Z" fill="#FFEBC2"/>
<path d="M146.673 56.4787C146.673 56.4787 146.673 23.5154 141.143 20.6759C135.617 17.838 131.961 16.2183 131.961 16.2183C131.88 17.2999 131.572 18.3524 131.059 19.3077C130.545 20.2631 129.837 21.1002 128.98 21.7647C127.147 23.1794 125.322 24.3524 124.302 24.3562L124.269 24.2163L124.145 23.8612L121.132 28.5478C121.132 28.5478 118.444 29.1453 117.548 30.9376C117.063 31.9073 119.349 41.6688 117.996 50.5042C116.848 58.0003 112.009 64.7671 111.872 65.5898C111.64 66.9805 117.521 63.3369 120.169 61.6335C120.208 61.6772 120.236 61.7064 120.236 61.7064C120.236 61.7064 118.743 62.3038 121.73 61.4077C123.422 60.8999 125.786 60.8717 127.517 60.9426C127.515 61.4616 127.527 61.8739 127.555 62.1545C127.854 65.1417 142.79 69.3239 144.881 68.4277C146.972 67.5315 146.673 56.4787 146.673 56.4787Z" fill="#9B0819"/>
<path d="M136.219 67.8302C136.219 67.8302 127.257 75.8958 133.231 77.3894C139.206 78.883 141.596 69.0251 141.596 69.0251L136.219 67.8302Z" fill="#FFEBC2"/>
<path d="M125.764 88.741C125.764 88.741 129.946 84.8575 132.336 86.9486C134.725 89.0397 136.219 90.5333 136.219 90.5333C136.219 90.5333 129.348 86.3512 125.764 88.741Z" fill="#FCC5CB"/>
<path d="M126.85 135.207C126.85 135.207 129.207 133.019 130.554 134.197C131.901 135.376 132.743 136.218 132.743 136.218C132.743 136.218 128.87 133.86 126.85 135.207Z" fill="#1D5D26"/>
<path d="M100.441 114.848C100.441 114.848 102.06 112.068 103.691 112.803C105.323 113.539 106.373 114.099 106.373 114.099C106.373 114.099 101.982 112.971 100.441 114.848Z" fill="#1D5D26"/>
<path d="M144.417 24.7746C141.456 18.8222 132.446 22.0686 133.91 28.5537C133.931 28.6503 133.954 28.748 133.978 28.8466C135.521 34.9854 138.043 40.8356 141.446 46.1726L138.16 60.8102L134.576 68.2783L142.044 70.0707L151.304 47.6663C151.304 47.6663 148.75 33.4848 144.417 24.7746Z" fill="#9B0819"/>
<path opacity="0.2" d="M140.102 46.6206L134.426 68.1289L139.205 57.9722L140.102 46.6206Z" fill="#847577"/>
<path d="M125.678 2.91596C125.678 2.91596 120.89 -2.12548 116.07 1.04943C111.25 4.22434 108.963 7.30845 109.436 9.45586C109.908 11.6033 111.307 14.5902 111.307 14.5902C111.307 14.5902 110.438 10.1414 114.429 9.81219C118.42 9.48297 123.934 6.84173 123.934 6.84173L127.664 14.8069C127.664 14.8069 128.191 12.9611 129.653 13.4905C131.115 14.02 129.982 3.50646 125.678 2.91596Z" fill="#181715"/>
<path d="M94.9947 116.821C94.9944 117.578 94.9314 118.333 94.8065 119.08V119.083C94.4634 121.09 93.6688 122.993 92.4827 124.649C91.2965 126.305 89.7497 127.669 87.9591 128.639C86.1685 129.61 84.1808 130.161 82.1462 130.251C80.1115 130.341 78.083 129.967 76.2138 129.159H76.2108C75.6577 128.92 75.1217 128.643 74.6067 128.331C73.0102 127.367 71.6315 126.082 70.5578 124.558C69.484 123.033 68.7388 121.302 68.3693 119.474C68.196 118.6 68.109 117.712 68.1094 116.821C68.1094 116.415 68.1273 116.012 68.1631 115.614V115.611C68.4731 112.181 70.088 109.001 72.6746 106.726C75.2611 104.452 78.622 103.257 82.0638 103.389C85.5056 103.52 88.7655 104.968 91.1711 107.433C93.5767 109.898 94.9443 113.192 94.9917 116.636V116.639C94.9947 116.702 94.9947 116.758 94.9947 116.821Z" fill="#181715"/>
<path d="M84.8611 112.331H78.8405L75.8301 107.118L77.872 103.579L77.9913 103.547C80.5762 102.856 83.3063 102.933 85.8486 103.767L85.9568 103.803L87.8716 107.118L84.8611 112.331ZM79.1853 111.734H84.5163L87.1817 107.118L85.5538 104.299C83.1915 103.55 80.6664 103.479 78.2654 104.093L76.52 107.118L79.1853 111.734Z" fill="white"/>
<path d="M84.5623 123.086H78.5417L75.5312 117.872L78.5417 112.658H84.5623L87.5727 117.872L84.5623 123.086ZM78.8865 122.488H84.2175L86.8828 117.872L84.2175 113.255H78.8865L76.2212 117.872L78.8865 122.488Z" fill="white"/>
<path d="M81.5514 130.563C79.6739 130.566 77.8159 130.181 76.0941 129.432L75.7871 129.299L78.8397 124.008H84.8605L87.7844 129.073L87.494 129.213C85.6406 130.106 83.6088 130.567 81.5514 130.563ZM76.6413 129.014C78.2838 129.675 80.0427 129.998 81.8129 129.963C83.583 129.928 85.3278 129.536 86.9429 128.81L84.5156 124.606H79.1848L76.6413 129.014Z" fill="white"/>
<path d="M94.7185 117.708H88.6979L85.6875 112.496L88.6978 107.28H91.4393L91.5277 107.373C93.9051 109.874 95.2491 113.182 95.29 116.632V116.719L94.7185 117.708ZM89.0428 117.111H94.3737L94.6914 116.561C94.6337 113.332 93.3836 110.239 91.1817 107.877H89.0429L86.3774 112.496L89.0428 117.111Z" fill="white"/>
<path d="M88.615 128.615L85.6875 123.548L88.6978 118.333H94.7183L95.1048 118.999L95.1006 119.133C94.7742 121.035 94.0516 122.847 92.9795 124.452C91.9075 126.058 90.5099 127.419 88.8777 128.449L88.615 128.615ZM86.3774 123.548L88.8195 127.775C90.2989 126.792 91.5642 125.52 92.5393 124.035C93.5145 122.551 94.1792 120.884 94.4936 119.136L94.374 118.93H89.0429L86.3774 123.548Z" fill="white"/>
<path d="M74.7134 128.744L74.4527 128.587C72.8213 127.601 71.4124 126.287 70.3149 124.728C69.2174 123.17 68.4554 121.401 68.0769 119.533L68.0547 119.422L68.6842 118.333H74.705L77.7153 123.548L74.7134 128.744ZM68.6852 119.525C69.0481 121.24 69.7495 122.866 70.7484 124.306C71.7473 125.747 73.0237 126.974 74.5027 127.915L77.0254 123.548L74.3599 118.93H69.029L68.6852 119.525Z" fill="white"/>
<path d="M74.7051 117.111H68.6847L67.8652 115.695V115.614C68.1602 112.229 69.7028 109.074 72.1934 106.762L72.2795 106.682H74.7053L77.7156 111.898L74.7051 117.111ZM69.0292 116.513H74.3603L77.0257 111.898L74.3602 107.28H72.5152C70.2105 109.455 68.7732 112.392 68.47 115.547L69.0292 116.513Z" fill="white"/>
</g>
<defs>
<clipPath id="clip0_3381_15539">
<rect width="256" height="152.478" fill="white"/>
</clipPath>
</defs>
</svg>
