<svg width="35" height="35" viewBox="0 0 35 35" fill="none" xmlns="http://www.w3.org/2000/svg">
<circle cx="16.3923" cy="16.3923" r="10.5" stroke="#181715" stroke-width="3"/>
<mask id="path-2-outside-1" maskUnits="userSpaceOnUse" x="8.9641" y="1.13397" width="25.1865" height="22.6244" fill="black">
<rect fill="white" x="8.9641" y="1.13397" width="25.1865" height="22.6244"/>
<path d="M26.7846 22.3923C27.8272 20.5865 28.3812 18.5402 28.3921 16.4551C28.4031 14.37 27.8705 12.3181 26.8469 10.5015C25.8233 8.68486 24.344 7.16633 22.5548 6.09553C20.7656 5.02472 18.7283 4.4386 16.6436 4.39494L16.5808 7.39428C18.1443 7.42703 19.6723 7.86662 21.0142 8.66972C22.3561 9.47282 23.4655 10.6117 24.2332 11.9742C25.0009 13.3366 25.4004 14.8756 25.3922 16.4394C25.384 18.0033 24.9685 19.538 24.1865 20.8923L26.7846 22.3923Z"/>
</mask>
<path d="M26.7846 22.3923C27.8272 20.5865 28.3812 18.5402 28.3921 16.4551C28.4031 14.37 27.8705 12.3181 26.8469 10.5015C25.8233 8.68486 24.344 7.16633 22.5548 6.09553C20.7656 5.02472 18.7283 4.4386 16.6436 4.39494L16.5808 7.39428C18.1443 7.42703 19.6723 7.86662 21.0142 8.66972C22.3561 9.47282 23.4655 10.6117 24.2332 11.9742C25.0009 13.3366 25.4004 14.8756 25.3922 16.4394C25.384 18.0033 24.9685 19.538 24.1865 20.8923L26.7846 22.3923Z" fill="#181715"/>
<path d="M26.7846 22.3923C27.8272 20.5865 28.3812 18.5402 28.3921 16.4551C28.4031 14.37 27.8705 12.3181 26.8469 10.5015C25.8233 8.68486 24.344 7.16633 22.5548 6.09553C20.7656 5.02472 18.7283 4.4386 16.6436 4.39494L16.5808 7.39428C18.1443 7.42703 19.6723 7.86662 21.0142 8.66972C22.3561 9.47282 23.4655 10.6117 24.2332 11.9742C25.0009 13.3366 25.4004 14.8756 25.3922 16.4394C25.384 18.0033 24.9685 19.538 24.1865 20.8923L26.7846 22.3923Z" stroke="white" stroke-width="2" mask="url(#path-2-outside-1)"/>
<mask id="path-3-outside-2" maskUnits="userSpaceOnUse" x="4.63403" y="11.5263" width="25.1865" height="22.6244" fill="black">
<rect fill="white" x="4.63403" y="11.5263" width="25.1865" height="22.6244"/>
<path d="M6.00006 22.3923C7.04263 24.1981 8.53773 25.701 10.338 26.753C12.1383 27.8051 14.1817 28.3698 16.2667 28.3916C18.3517 28.4135 20.4065 27.8916 22.2284 26.8776C24.0503 25.8635 25.5766 24.3922 26.6567 22.6086L24.0906 21.0545C23.2805 22.3922 22.1358 23.4957 20.7694 24.2563C19.4029 25.0168 17.8619 25.4082 16.2981 25.3918C14.7344 25.3754 13.2018 24.9519 11.8516 24.1629C10.5014 23.3739 9.38006 22.2466 8.59814 20.8923L6.00006 22.3923Z"/>
</mask>
<path d="M6.00006 22.3923C7.04263 24.1981 8.53773 25.701 10.338 26.753C12.1383 27.8051 14.1817 28.3698 16.2667 28.3916C18.3517 28.4135 20.4065 27.8916 22.2284 26.8776C24.0503 25.8635 25.5766 24.3922 26.6567 22.6086L24.0906 21.0545C23.2805 22.3922 22.1358 23.4957 20.7694 24.2563C19.4029 25.0168 17.8619 25.4082 16.2981 25.3918C14.7344 25.3754 13.2018 24.9519 11.8516 24.1629C10.5014 23.3739 9.38006 22.2466 8.59814 20.8923L6.00006 22.3923Z" fill="#181715"/>
<path d="M6.00006 22.3923C7.04263 24.1981 8.53773 25.701 10.338 26.753C12.1383 27.8051 14.1817 28.3698 16.2667 28.3916C18.3517 28.4135 20.4065 27.8916 22.2284 26.8776C24.0503 25.8635 25.5766 24.3922 26.6567 22.6086L24.0906 21.0545C23.2805 22.3922 22.1358 23.4957 20.7694 24.2563C19.4029 25.0168 17.8619 25.4082 16.2981 25.3918C14.7344 25.3754 13.2018 24.9519 11.8516 24.1629C10.5014 23.3739 9.38006 22.2466 8.59814 20.8923L6.00006 22.3923Z" stroke="white" stroke-width="2" mask="url(#path-3-outside-2)"/>
</svg>
