<svg width="24" height="24" viewBox="0 0 24 24" fill="none" xmlns="http://www.w3.org/2000/svg">
<path d="M20.9974 14.1705C20.9934 14.1539 20.9914 14.1498 20.9656 14.1374C20.6106 14.0318 19.6922 13.7007 19.2359 13.5413C19.9976 8.98388 16.5442 7.35298 15.6814 7.03425C15.5802 6.98044 15.5802 6.97423 15.6814 7.1336C16.088 7.60962 17.296 9.20327 17.3476 11.0577C17.3476 12.3285 16.9985 13.0115 16.9985 13.0115L15.0625 12.4319C15.0625 12.4319 14.9633 12.3885 15.0149 12.5479C15.3699 13.2888 16.8993 16.7762 16.9508 16.9355C17.0024 17.0411 17.0937 16.9852 17.0937 16.9852L20.9656 14.2864C20.9656 14.2864 21.0113 14.2222 20.9974 14.1705Z" fill="#E5E6E4"/>
<path d="M12.9957 11.0824C13.009 11.0523 12.989 11.0033 12.969 10.9318C12.8822 10.642 9.73887 3.04349 9.73887 3.04349C9.73887 3.04349 9.74554 2.94564 9.65878 3.04349C9.57202 3.14134 4.00607 7.1796 3.06507 7.95112C2.97831 8.04897 2.97831 8.03392 3.06507 8.13177C3.57895 8.32371 5.28744 8.92587 6.05493 9.21567C4.77356 17.597 10.6732 20.4761 11.9546 20.9579C12.1247 21.0557 12.1214 20.9654 12.0347 20.8675C11.3506 20.0019 9.13155 17.0137 9.04479 13.6416C8.95803 11.3308 9.65878 10.1791 9.65878 10.1791L12.8088 11.1426C12.8088 11.1426 12.959 11.1765 12.9957 11.0824Z" fill="#4EAD57"/>
</svg>
