<svg width="24" height="24" viewBox="0 0 24 24" fill="none" xmlns="http://www.w3.org/2000/svg">
<path d="M3.00263 9.82953C3.0066 9.84609 3.00858 9.85023 3.03437 9.86264C3.38943 9.9682 4.30783 10.2993 4.76406 10.4587C4.00236 15.0161 7.45579 16.647 8.31865 16.9657C8.41981 17.0196 8.41981 17.0258 8.31865 16.8664C7.91201 16.3904 6.70401 14.7967 6.65243 12.9423C6.65243 11.6715 7.00155 10.9885 7.00155 10.9885L8.93753 11.5681C8.93753 11.5681 9.03671 11.6115 8.98513 11.4521C8.63007 10.7112 7.10073 7.22382 7.04915 7.06445C6.99758 6.9589 6.90633 7.01478 6.90633 7.01478L3.03437 9.71363C3.03437 9.71363 2.98874 9.77779 3.00263 9.82953Z" fill="#E5E6E4"/>
<path d="M11.0043 12.9176C10.991 12.9477 11.011 12.9967 11.031 13.0682C11.1178 13.358 14.2611 20.9565 14.2611 20.9565C14.2611 20.9565 14.2545 21.0544 14.3412 20.9565C14.428 20.8587 19.9939 16.8204 20.9349 16.0489C21.0217 15.951 21.0217 15.9661 20.9349 15.8682C20.421 15.6763 18.7126 15.0741 17.9451 14.7843C19.2264 6.40297 13.3268 3.52388 12.0454 3.04214C11.8753 2.94429 11.8786 3.03462 11.9653 3.13247C12.6494 3.99808 14.8684 6.98632 14.9552 10.3584C15.042 12.6692 14.3412 13.8209 14.3412 13.8209L11.1912 12.8574C11.1912 12.8574 11.041 12.8235 11.0043 12.9176Z" fill="#DB0A23"/>
</svg>
