<svg width="104" height="104" viewBox="0 0 104 104" fill="none" xmlns="http://www.w3.org/2000/svg">
<rect x="1" y="1" width="102" height="102" rx="51" fill="#F4F4F4"/>
<path d="M37 48.4235C37 46.7168 38.3835 45.3333 40.0902 45.3333V45.3333C41.2606 45.3333 42.3307 44.672 42.8541 43.6251L44.2278 40.8778C44.7657 39.8019 45.0346 39.264 45.5179 38.9653C46.0012 38.6666 46.6027 38.6666 47.8055 38.6666H56.1945C57.3973 38.6666 57.9988 38.6666 58.4821 38.9653C58.9654 39.264 59.2343 39.8019 59.7722 40.8778L61.1459 43.6251C61.6693 44.672 62.7394 45.3333 63.9098 45.3333V45.3333C65.6165 45.3333 67 46.7168 67 48.4235V59.3333C67 62.1617 67 63.5759 66.1213 64.4546C65.2426 65.3333 63.8284 65.3333 61 65.3333H43C40.1716 65.3333 38.7574 65.3333 37.8787 64.4546C37 63.5759 37 62.1617 37 59.3333V48.4235Z" stroke="#A6A2A2" stroke-width="3"/>
<path d="M57.1663 53.6667C57.1663 56.5201 54.8531 58.8333 51.9997 58.8333C49.1462 58.8333 46.833 56.5201 46.833 53.6667C46.833 50.8132 49.1462 48.5 51.9997 48.5C54.8531 48.5 57.1663 50.8132 57.1663 53.6667Z" stroke="#A6A2A2" stroke-width="3"/>
<rect x="1" y="1" width="102" height="102" rx="51" stroke="#CFD2CD" stroke-width="2" stroke-dasharray="6 6"/>
</svg>
