<svg width="16" height="16" viewBox="0 0 16 16" fill="none" xmlns="http://www.w3.org/2000/svg">
<path d="M8.00065 14.6663C11.6825 14.6663 14.6673 11.6816 14.6673 7.99967C14.6673 4.31778 11.6825 1.33301 8.00065 1.33301C4.31875 1.33301 1.33398 4.31778 1.33398 7.99967C1.33398 11.6816 4.31875 14.6663 8.00065 14.6663Z" fill="url(#paint0_linear_7903_9938)"/>
<path d="M4.35123 7.92968C6.2947 7.08295 7.59065 6.52472 8.23908 6.25502C10.0905 5.48495 10.4752 5.35119 10.7259 5.34672C10.7811 5.3458 10.9044 5.35947 10.9843 5.42428C11.0517 5.47901 11.0703 5.55293 11.0791 5.60482C11.088 5.65671 11.0991 5.77491 11.0903 5.86726C10.99 6.92142 10.5559 9.47959 10.335 10.6603C10.2415 11.1598 10.0575 11.3274 9.87939 11.3437C9.49224 11.3794 9.19826 11.0879 8.82329 10.8421C8.23654 10.4575 7.90506 10.218 7.33552 9.84272C6.67731 9.40897 7.104 9.17058 7.47911 8.78097C7.57728 8.67901 9.28305 7.12748 9.31607 6.98673C9.32019 6.96912 9.32403 6.90351 9.28505 6.86886C9.24606 6.83421 9.18853 6.84606 9.14701 6.85549C9.08817 6.86884 8.15082 7.48839 6.33498 8.71414C6.06891 8.89684 5.82792 8.98585 5.612 8.98119C5.37397 8.97605 4.91609 8.8466 4.5757 8.73595C4.1582 8.60024 3.82638 8.52849 3.85527 8.29801C3.87032 8.17796 4.03564 8.05518 4.35123 7.92968Z" fill="white"/>
<defs>
<linearGradient id="paint0_linear_7903_9938" x1="8.00065" y1="1.33301" x2="8.00065" y2="14.5674" gradientUnits="userSpaceOnUse">
<stop stop-color="#2AABEE"/>
<stop offset="1" stop-color="#229ED9"/>
</linearGradient>
</defs>
</svg>
