<svg xmlns="http://www.w3.org/2000/svg" viewBox="0 0 23 20.66324"><defs><style>.a{fill:#252523;}.b{fill:#fff;}.c{fill:#d9d9d9;}.d{fill:#3c3c3b;}.e{fill:#6f6f6e;}.f{fill:#c6c6c5;}</style></defs><path class="a" d="M21.96063,21.154a3.58825,3.58825,0,0,1-1.31314.009h-.0012a13.71377,13.71377,0,0,1-2.32666-.5716l-.0024-.00061-.01081-.0036-.0006-.0006h-.0006l-.0006-.0006c-.36026-.11768-.72712-.24858-1.09458-.39088l-.00661-.0024c-.70009-.26959-1.40139-.57761-2.05286-.903l-.01081-.00481c-.31762-.15851-.62385-.32123-.91205-.48574l-.0024-.00121a8.22879,8.22879,0,0,1-1.94539-1.42181c-1.60555-1.77727-5.055-4.19219-6.376-4.40535a1.22528,1.22528,0,0,0-.67729.37527c-.21435.29061-.85081.38788-1.56471-.32483a5.792,5.792,0,0,1,.02461-1.25069L2.906,11.325l-.90965.39808a.90985.90985,0,0,1-.45333-.12609c-.1471-.12008-.66287-.68328-.66287-.68328a1.97689,1.97689,0,0,1,.233-1.106A3.63092,3.63092,0,0,1,.58357,7.346C.93722,6.33726,1.4758,4.1601,5.54071,1.53143c1.60434-1.03754,1.77066.843,1.77066.843s-.82439,1.955-.05524,2.50919a5.00653,5.00653,0,0,0,3.83254,1.10359c.16512-.012.33024-.021.49415-.02642a8.95633,8.95633,0,0,1,3.06819.37407,2.14959,2.14959,0,0,1,.73252.39628.6851.6851,0,0,1,.18194.25038,40.8099,40.8099,0,0,0,4.00365,7.43991c.01081.015.02222.03062.03483.04563l.0012.00181a6.86934,6.86934,0,0,0,1.51668,1.5533,15.36573,15.36573,0,0,1,2.281,2.56323A1.90854,1.90854,0,0,1,21.96063,21.154Z" transform="translate(-0.5 -1.21918)"/><path class="a" d="M20.64762,21.16328s-.47338.66313-.6985.70154-1.15477.05138-1.34148-.37328-.13281-.87229-.30884-.90654Z" transform="translate(-0.5 -1.21918)"/><path class="a" d="M17.22054,20.2a7.90116,7.90116,0,0,1-.71739.66609c-.111.04829-1.01286.10126-1.193-.39064s-.06414-1.09171-.17067-1.19039Z" transform="translate(-0.5 -1.21918)"/><path class="a" d="M14.23123,18.80222a5.06236,5.06236,0,0,0-.81813.48285c-.419.305-1.269-.606-1.28957-.70228a1.77153,1.77153,0,0,1,.05768-.65679c.07552-.30219.16687-.47537.09875-.54991Z" transform="translate(-0.5 -1.21918)"/><path class="b" d="M22.1498,20.51809c-6.36856.16662-10.97757-5.01826-10.97757-5.01826s-2.55234-3.70255-6.14642-4.70357S1.22253,7.03385,1.22253,7.03385s2.35176,3.18063,3.9021,3.17114,6.35906,5.18777,6.35906,5.18777,5.27914,4.33073,8.90972,4.60612l1.82428.52314Z" transform="translate(-0.5 -1.21918)"/><path class="b" d="M4.44035,3.17584S4.523,8.49406,9.37571,8.23038s5.403-.19154,5.403-.19154a2.26049,2.26049,0,0,0-1.88834-1.35467c-1.3598-.05321-2.84908.27152-4.35979-.169S6.19379,5.21832,6.14978,4.1462A1.7256,1.7256,0,0,1,6.4845,2.97514c.436-.6959-.12874-.77851-.12874-.77851a2.01566,2.01566,0,0,0-1.27305.469Z" transform="translate(-0.5 -1.21918)"/><path class="c" d="M14.651,6.33486a8.95633,8.95633,0,0,0-3.06819-.37407c.01381-.02942.91265-2.01744,1.99523-1.84992C14.05779,4.18592,14.61259,5.76445,14.651,6.33486Z" transform="translate(-0.5 -1.21918)"/><path class="d" d="M15.38353,6.73114l-.73011-.35245L14.651,6.33486c-.03842-.57041-.59322-2.14894-1.073-2.224-1.08258-.16752-1.98142,1.8205-1.99523,1.84992v.0006l-.49415.02582a3.89934,3.89934,0,0,1,1.90576-2.299.88314.88314,0,0,1,1.29152.341C14.39583,4.18892,15.38353,6.73114,15.38353,6.73114Z" transform="translate(-0.5 -1.21918)"/><path class="e" d="M4.16417,3.68837a5.9503,5.9503,0,0,0,.40206,3.2548,4.68044,4.68044,0,0,0,2.215,2.25361,8.2219,8.2219,0,0,0,1.51827.6054c.53909.11338,1.07834.24649,1.62911.32521,1.10734.15572,2.22835.17069,3.36474.22436-.56071.07436-1.12675.11666-1.69438.176-.56783.03826-1.13872-.01443-1.71175-.018a14.94924,14.94924,0,0,1-1.70757-.24957,8.26276,8.26276,0,0,1-1.63152-.62142A4.69786,4.69786,0,0,1,4.21172,7.08773,5.17564,5.17564,0,0,1,4.16417,3.68837Z" transform="translate(-0.5 -1.21918)"/><path class="f" d="M12.50607,17.868a1.28269,1.28269,0,0,0-.09964.56722c.05365.17629.70518.57488.70518.57488s.59788-.13031.66686-.276S12.5444,18.16693,12.50607,17.868Z" transform="translate(-0.5 -1.21918)"/><path class="b" d="M14.30736,20.522Z" transform="translate(-0.5 -1.21918)"/><path class="f" d="M15.45712,19.73827s.01533.70136.16863.78375.55955.228.72051.15138a2.70412,2.70412,0,0,0,.49057-.45676S15.48011,19.8839,15.45712,19.73827Z" transform="translate(-0.5 -1.21918)"/><path class="f" d="M18.73009,20.94168s-.03066.4829.22995.56721a4.76082,4.76082,0,0,0,.90448.09965,2.39317,2.39317,0,0,0,.39092-.33343c.03832-.08049-1.04806-.06811-1.50235-.37911Z" transform="translate(-0.5 -1.21918)"/><rect class="b" x="14.48677" y="9.17868" width="2.33848" height="0.50916" rx="0.21658" transform="translate(-3.10032 7.31764) rotate(-28.2592)"/><rect class="b" x="15.60264" y="10.99968" width="2.06441" height="0.50916" rx="0.20349" transform="translate(-3.84582 7.99811) rotate(-28.2592)"/><rect class="b" x="16.8982" y="12.82951" width="1.83225" height="0.50916" rx="0.19183" transform="translate(-4.5716 8.77464) rotate(-28.2592)"/><rect class="b" x="18.52978" y="14.5236" width="1.3466" height="0.50916" rx="0.16718" transform="translate(-5.20817 9.63407) rotate(-28.2592)"/></svg>