<svg xmlns="http://www.w3.org/2000/svg" xmlns:xlink="http://www.w3.org/1999/xlink" viewBox="0 0 24 24"><defs><style>.a{fill:#b2b2b2;}.b{fill-rule:evenodd;fill:url(#a);}</style><linearGradient id="a" x1="12" y1="24" x2="12" y2="6" gradientUnits="userSpaceOnUse"><stop offset="0" stop-color="#018e42"/><stop offset="1" stop-color="#005a2f"/></linearGradient></defs><path d="M24,13H22.3V1.7H1.8V13H0V.9A.89626.89626,0,0,1,.9,0H23.1a.89626.89626,0,0,1,.9.9Z"/><path class="a" d="M22.2,2V1.7h-.1l-1.3.8H18.3l.9-.8h-.4l-.9.8H15.3l.4-.8h-.3l-.4.8H12.3V1.7H12v.8H9.1l-.4-.8H8.4l.4.8H6.2l-.9-.8H4.8l.9.8H3.2L1.9,1.7H1.8V2l1.1.7V5.6L1.8,5.4v.3l1.1.2V8.8L1.8,9v.3l1.1-.2V12l-1.1.7V13L3,12.2l.1-.1,1-.6.1-.1L5,11H19l.8.5.1.1,1,.6.1.1,1.3.8v-.3L21.2,12V9.1l1.1.2V9l-1.1-.2V5.9l1.1-.2V5.4l-1.1.2V2.7ZM4,11.3l-.9.5V9L4,8.9ZM4,8.6l-.9.2V5.9l.9.2ZM4,5.8l-.9-.2V2.9l.9.5Zm.9,5-.6.3V8.8l.6-.1Zm0-2.4-.6.1V6.2l.6.1ZM4.9,6l-.6-.1V3.5l.6.3ZM3.7,2.8H6l1,.9H5Zm3.5,7.9h-2v-2h2Zm0-2.3h-2V6.3h2ZM7.2,6h-2V3.9h2ZM6.5,2.8H9l.5.8h-2Zm3,7.9h-2v-2h2Zm0-2.3h-2V6.3h2ZM9.5,6h-2V3.9h2Zm2.4,4.7h-2v-2h2Zm0-2.3h-2V6.3h2Zm0-2.4h-2V3.9h2Zm0-2.3H9.8l-.5-.9h2.6Zm2.3,7h-2v-2h2Zm0-2.3h-2V6.3h2Zm0-2.4h-2V3.9h2ZM12.1,3.7V2.8h2.6l-.5.8H12.1Zm4.4,7h-2v-2h2Zm0-2.3h-2V6.3h2Zm0-2.4h-2V3.9h2ZM14.6,3.7l.4-.9h2.5l-.9.8h-2Zm4.3,7h-2v-2h2Zm0-2.3h-2V6.3h2Zm0-2.4h-2V3.9h2Zm.8,5.1-.6-.3V8.7l.6.1Zm0-2.6-.6-.1V6.3l.6-.1Zm0-2.6-.6.1V3.9l.6-.3ZM19,3.7H17l1-.9h2.4Zm1.9,8.1-.9-.5V8.9l.9.1Zm0-3L20,8.6V6.1l.9-.2Zm0-3.2-.9.2V3.4l.9-.5Z"/><path d="M22.2,13Z"/><path class="b" d="M6.8,13.6V11.2a5.2,5.2,0,0,1,10.4,0v2.4h.4A2.4,2.4,0,0,1,20,16v5.6A2.4,2.4,0,0,1,17.6,24H6.4A2.4,2.4,0,0,1,4,21.6V16a2.4,2.4,0,0,1,2.4-2.4Zm3.2201-4.3799A2.8,2.8,0,0,1,14.8,11.2v2.4H9.2V11.2A2.8,2.8,0,0,1,10.0201,9.2201Z"/></svg>