<svg xmlns="http://www.w3.org/2000/svg" xmlns:xlink="http://www.w3.org/1999/xlink" viewBox="0 0 24 24.01613"><defs><style>.a{fill:#ececec;}.b{fill:#d9d9d9;}.c{fill:url(#a);}.d{fill:#fff;}.e{fill:#dd2f3c;}.f{fill:none;stroke:#fff;stroke-linecap:round;stroke-miterlimit:10;stroke-width:2px;}</style><linearGradient id="a" x1="3.50745" y1="3.5288" x2="20.4528" y2="20.47415" gradientUnits="userSpaceOnUse"><stop offset="0" stop-color="#3c3c3b"/><stop offset="1" stop-color="#1d1d1b"/></linearGradient></defs><circle class="a" cx="12" cy="12" r="12"/><path class="b" d="M18.74621,21.51188A12.05692,12.05692,0,0,1,2.205,18.85452C19.60533,23.01818,21.67052,8.23219,21.87621,5.73186A11.33915,11.33915,0,0,1,18.74621,21.51188Z"/><path class="c" d="M23.91,11.15A1.154,1.154,0,0,0,23.9,10.96a11.60533,11.60533,0,0,0-1.66-5.11V5.84a1.09176,1.09176,0,0,0-.08-.15,11.97927,11.97927,0,1,0-20.12,13c.03.04.07.1.11.15a7.50858,7.50858,0,0,0,.54.72c.03.04.05.07.07.1a12.0217,12.0217,0,0,0,5.49,3.73A.00979.00979,0,0,0,8.26,23.4h.01a.35788.35788,0,0,0,.11.04h.01a11.77983,11.77983,0,0,0,3.59.56A11.99394,11.99394,0,0,0,23.95,12.27a1.84578,1.84578,0,0,0,.01-.24V12A5.96631,5.96631,0,0,0,23.91,11.15ZM12.03,3.37l.02-.02,3.8-1.29.1-.03a.17245.17245,0,0,0,.13-.21l-.01-.09-.13-.66a11.91054,11.91054,0,0,1,5.05,3.61l-.51.03-.12.01a.19533.19533,0,0,0-.18.19V9.2l-3.59.86h-.01L12.09,6.74a.10728.10728,0,0,0-.06-.02ZM7.76,1.18l-.13.47-.03.1a.19094.19094,0,0,0,.12.22L7.81,2l3.84,1.28V6.89L7.33,10.07,3.84,9.22V4.91a.18663.18663,0,0,0-.16-.19l-.17-.01-.53-.03A11.44742,11.44742,0,0,1,7.76,1.18ZM2.72,17.63l-.1-.03a.18.18,0,0,0-.24.09l-.01.06-.18.46a11.47337,11.47337,0,0,1-1.8-5.75l.58.31.08.05005a.2213.2213,0,0,0,.08.00995.31464.31464,0,0,0,.19-.08l.02-.02L3.72,9.57l3.43.84,1.71,5.33L6.69,18.93Zm11.77,5.04.12.1v.01l.44.42a11.55036,11.55036,0,0,1-3.07.42,11.77747,11.77747,0,0,1-3.23-.46l.39-.38h.01l.12-.11a.19669.19669,0,0,0,.02-.25l-.02-.02L6.99,19.16l2.14-3.12h5.7l1.92,3.11L14.49,22.4l-.01.02A.18454.18454,0,0,0,14.49,22.67Zm7.14-4.26-.24-.63v-.01l-.03-.09a.1866.1866,0,0,0-.23-.11l-.08.04-4,1.3L15.1,15.74l1.72-5.34,3.47-.85,2.37,3.15.01.00995.04.04a.14245.14245,0,0,0,.14.08c.04,0,.08-.00995.14-.00995l.05-.05005.52-.27A11.41329,11.41329,0,0,1,21.63,18.41Z"/><ellipse class="d" cx="15.99331" cy="16.03998" rx="7.96671" ry="7.97615"/><ellipse class="e" cx="15.99331" cy="16.03998" rx="6.57305" ry="6.58083"/><line class="f" x1="18.72365" y1="13.3064" x2="13.26297" y2="18.77355"/><line class="f" x1="18.72365" y1="18.77355" x2="13.26297" y2="13.3064"/></svg>