<svg xmlns="http://www.w3.org/2000/svg" viewBox="0 0 24.00142 24"><defs><style>.a{fill:#e3cbcc;}.b{fill:#e3b0b2;}.c{fill:#d21f3c;}</style></defs><circle class="a" cx="12.00142" cy="12" r="12"/><path class="b" d="M18.74692,21.51188A12.05692,12.05692,0,0,1,2.20571,18.85452C19.606,23.01818,21.67123,8.23219,21.87692,5.73186a11.33916,11.33916,0,0,1-3.06941,15.73949Z" transform="translate(0.00071 0)"/><path class="c" d="M23.91071,11.15a1.154,1.154,0,0,0-.01-.19,11.60548,11.60548,0,0,0-1.66-5.11V5.84a1.09249,1.09249,0,0,0-.08-.15A11.97927,11.97927,0,0,0,1.7997,18.317q.117.18872.241.373c.03.04.07.1.11.15a7.508,7.508,0,0,0,.54.72c.03.04.05.07.07.1a12.02167,12.02167,0,0,0,5.49,3.73.00979.00979,0,0,0,.00957.01h.01043a.35788.35788,0,0,0,.11.04h.01a11.77966,11.77966,0,0,0,3.59.56,11.99394,11.99394,0,0,0,11.97-11.73,1.8462,1.8462,0,0,0,.01-.24V12A5.96587,5.96587,0,0,0,23.91071,11.15Zm-11.88-7.78.02-.02,3.8-1.29.1-.03a.17245.17245,0,0,0,.131-.2057l-.001-.0043-.01-.09-.13-.66a11.91054,11.91054,0,0,1,5.05,3.61l-.51.03-.12.01a.19532.19532,0,0,0-.18.19V9.2l-3.59.86h-.01l-4.49-3.32a.10737.10737,0,0,0-.06-.02Zm-4.27-2.19-.13.47-.03.1a.19094.19094,0,0,0,.12.22l.09.03,3.84,1.28V6.89l-4.32,3.18-3.49-.85V4.91a.18664.18664,0,0,0-.16-.19l-.17-.01-.53-.03A11.44735,11.44735,0,0,1,7.76071,1.18Zm-5.04,16.45-.1-.03a.18.18,0,0,0-.239.08772l-.001.00228-.01.06-.18.46a11.47338,11.47338,0,0,1-1.8-5.75l.58.31.08.05005a.22143.22143,0,0,0,.08.00995.31472.31472,0,0,0,.19-.08l.02-.02,2.38-3.16,3.43.84,1.71,5.33-2.17,3.19Zm11.77,5.04.12.1v.01l.44.42a11.55057,11.55057,0,0,1-3.07.42,11.77751,11.77751,0,0,1-3.23-.46l.39-.38h.01l.12-.11a.19669.19669,0,0,0,.02-.25l-.02-.02-2.28-3.24,2.14-3.12h5.7l1.92,3.11-2.26,3.25-.01.02A.18454.18454,0,0,0,14.49071,22.67Zm7.14-4.26-.24-.63v-.01l-.03-.09a.1866.1866,0,0,0-.23-.11l-.08.04-4,1.3-1.95-3.17,1.72-5.34,3.47-.85,2.37,3.15.01.00995.04.04a.14246.14246,0,0,0,.14.08c.04,0,.08-.00995.14-.00995l.05-.05005.52-.27A11.41329,11.41329,0,0,1,21.63071,18.41Z" transform="translate(0.00071 0)"/></svg>