<svg xmlns="http://www.w3.org/2000/svg" xmlns:xlink="http://www.w3.org/1999/xlink" viewBox="0 0 24 24.01507"><defs><style>.a{fill:#b2b2b2;}.b{fill:#ececec;}.c{fill:#d9d9d9;}.d{fill:url(#a);}</style><linearGradient id="a" x1="6.3383" y1="10.3676" x2="17.6352" y2="21.6645" gradientUnits="userSpaceOnUse"><stop offset="0" stop-color="#3c3c3b"/><stop offset="1" stop-color="#1d1d1b"/></linearGradient></defs><path d="M24,13H22.3V1.7H1.8V13H0V.9A.89626.89626,0,0,1,.9,0H23.1a.89626.89626,0,0,1,.9.9Z"/><path class="a" d="M22.2,2V1.7h-.1l-1.3.8H18.3l.9-.8h-.4l-.9.8H15.3l.4-.8h-.3l-.4.8H12.3V1.7H12v.8H9.1l-.4-.8H8.4l.4.8H6.2l-.9-.8H4.8l.9.8H3.2L1.9,1.7H1.8V2l1.1.7V5.6L1.8,5.4v.3l1.1.2V8.8L1.8,9v.3l1.1-.2V12l-1.1.7V13L3,12.2l.1-.1,1-.6.1-.1L5,11H19l.8.5.1.1,1,.6.1.1,1.3.8v-.3L21.2,12V9.1l1.1.2V9l-1.1-.2V5.9l1.1-.2V5.4l-1.1.2V2.7ZM4,11.3l-.9.5V9L4,8.9ZM4,8.6l-.9.2V5.9l.9.2ZM4,5.8l-.9-.2V2.9l.9.5Zm.9,5-.6.3V8.8l.6-.1Zm0-2.4-.6.1V6.2l.6.1ZM4.9,6l-.6-.1V3.5l.6.3ZM3.7,2.8H6l1,.9H5Zm3.5,7.9h-2v-2h2Zm0-2.3h-2V6.3h2ZM7.2,6h-2V3.9h2ZM6.5,2.8H9l.5.8h-2Zm3,7.9h-2v-2h2Zm0-2.3h-2V6.3h2ZM9.5,6h-2V3.9h2Zm2.4,4.7h-2v-2h2Zm0-2.3h-2V6.3h2Zm0-2.4h-2V3.9h2Zm0-2.3H9.8l-.5-.9h2.6Zm2.3,7h-2v-2h2Zm0-2.3h-2V6.3h2Zm0-2.4h-2V3.9h2ZM12.1,3.7V2.8h2.6l-.5.8H12.1Zm4.4,7h-2v-2h2Zm0-2.3h-2V6.3h2Zm0-2.4h-2V3.9h2ZM14.6,3.7l.4-.9h2.5l-.9.8h-2Zm4.3,7h-2v-2h2Zm0-2.3h-2V6.3h2Zm0-2.4h-2V3.9h2Zm.8,5.1-.6-.3V8.7l.6.1Zm0-2.6-.6-.1V6.3l.6-.1Zm0-2.6-.6.1V3.9l.6-.3ZM19,3.7H17l1-.9h2.4Zm1.9,8.1-.9-.5V8.9l.9.1Zm0-3L20,8.6V6.1l.9-.2Zm0-3.2-.9.2V3.4l.9-.5Z"/><path d="M22.2,13Z"/><circle class="b" cx="12" cy="16.01507" r="8"/><path class="c" d="M16.49748,22.56522A8.03794,8.03794,0,0,1,5.47,20.79364c11.6002,2.77578,12.977-7.08155,13.11412-8.74843A7.55944,7.55944,0,0,1,16.49748,22.56522Z"/><path class="d" d="M19.94,15.44838a.76974.76974,0,0,0-.00663-.12667,7.737,7.737,0,0,0-1.10669-3.40666v-.00667a.72982.72982,0,0,0-.05334-.1A7.98618,7.98618,0,1,0,5.36,20.47507c.02.02665.04667.06665.07336.1a5.007,5.007,0,0,0,.36.48c.02.02665.03333.04667.04668.06665A8.01446,8.01446,0,0,0,9.5,23.60841a.00652.00652,0,0,0,.00667.00664h.00668a.2388.2388,0,0,0,.07332.02669h.00667a7.85333,7.85333,0,0,0,2.39331.37333,7.996,7.996,0,0,0,7.98-7.82,1.22927,1.22927,0,0,0,.00668-.16v-.02A3.97792,3.97792,0,0,0,19.94,15.44838Zm-7.92-5.18665.01331-.01334,2.53332-.86.06669-.02a.115.115,0,0,0,.08667-.14l-.00667-.06-.08667-.44a7.94032,7.94032,0,0,1,3.36666,2.40665l-.34.02-.08.00668a.13021.13021,0,0,0-.12.12667v2.86L15.06,14.72173h-.00668L12.06,12.5084a.07148.07148,0,0,0-.04-.01335Zm-2.84668-1.46-.08667.31332-.02.06669a.1273.1273,0,0,0,.08.14664l.06.02,2.56.85332v2.40669l-2.88,2.12L6.56,14.16172V11.28839a.12442.12442,0,0,0-.10669-.12667L6.34,11.155l-.35336-.02A7.63175,7.63175,0,0,1,9.17334,8.80173Zm-3.36,10.96668-.06665-.02a.12.12,0,0,0-.16.06l-.00667.04-.12.30664a7.64879,7.64879,0,0,1-1.2-3.83333l.38664.20667L4.7,16.56174a.14764.14764,0,0,0,.05335.00663.20969.20969,0,0,0,.12666-.0533l.01335-.01335L6.48,14.39507l2.2867.56,1.14,3.55335L8.46,20.63506Zm7.84668,3.36.08.06665v.00668l.29334.28a7.70005,7.70005,0,0,1-2.04668.28,7.8517,7.8517,0,0,1-2.15332-.30668l.26-.25333H10.1l.08-.07333a.13112.13112,0,0,0,.01331-.16666L10.18,22.94838l-1.52-2.16,1.42668-2.08h3.8l1.28,2.07332L13.66,22.94838l-.00667.01335A.123.123,0,0,0,13.66,23.12839Zm4.76-2.84-.16-.42v-.00667l-.02-.06a.12439.12439,0,0,0-.15332-.07332l-.05334.02665-2.66667.86666-1.3-2.11332,1.14669-3.56,2.31331-.56665,1.58,2.1.00667.00664.02669.02669a.095.095,0,0,0,.09331.0533c.02669,0,.05334-.00663.09334-.00663l.03333-.03336.34668-.18A7.60886,7.60886,0,0,1,18.42,20.28839Z"/></svg>