<svg xmlns="http://www.w3.org/2000/svg" xmlns:xlink="http://www.w3.org/1999/xlink" viewBox="0 0 24 24"><defs><style>.a{fill:#af1e25;}.b{fill:#fff;}.c{fill:url(#a);}.d{fill:#006b3f;}.e{fill:url(#b);}</style><linearGradient id="a" x1="12" y1="2" x2="12" y2="22" gradientUnits="userSpaceOnUse"><stop offset="0" stop-color="#dd2f3c"/><stop offset="1" stop-color="#dd2f1b"/></linearGradient><linearGradient id="b" x1="12" y1="2" x2="12" y2="22" gradientUnits="userSpaceOnUse"><stop offset="0" stop-color="#008839"/><stop offset="0.34177" stop-color="#018c3e"/><stop offset="1" stop-color="#018e42"/></linearGradient></defs><circle class="a" cx="12" cy="12" r="12"/><circle class="b" cx="12" cy="12" r="11"/><circle class="c" cx="12" cy="12" r="10"/><path class="b" d="M17.98386,9.62444a1.5831,1.5831,0,0,1,1.17152,2.92047.2484.2484,0,0,0-.15162.29033,4.13947,4.13947,0,0,1-1.73493,3.90764,4.29408,4.29408,0,0,1-3.50912.83036,4.16254,4.16254,0,0,1-2.93865-2.04543c-.00876-.01509-.02121-.028-.0456-.05973-.2254.09764-.4542.19548-.682.29566q-1.81476.79827-3.629,1.59776a.408.408,0,0,1-.57468-.15921c-.44227-.6903-.88469-1.38066-1.31253-2.07989a1.31354,1.31354,0,0,1-.1482-.47289c-.14493-.90966-.2756-1.82159-.42039-2.73128a.47056.47056,0,0,1,.252-.52241c.94215-.58123,1.87988-1.16963,2.82353-1.74839,1.45378-.89164,2.9043-1.78888,4.3685-2.66315a4.30692,4.30692,0,0,1,6.10243,1.69853C17.715,8.98153,17.83743,9.30024,17.98386,9.62444ZM5.46482,14.9651c.306.48364.60055.95464.90508,1.4191.02186.03334.12754.04392.17591.02291.94875-.41218,1.89474-.83068,2.84137-1.24774.45962-.20249.91736-.40945,1.3798-.60529a.43438.43438,0,0,1,.63668.259,3.503,3.503,0,0,0,5.16961,1.39855,3.43343,3.43343,0,0,0-3.632-5.82768c-2.24281,1.33122-4.45065,2.72135-6.67339,4.08639C6.00407,14.6323,5.74076,14.79505,5.46482,14.9651Zm5.41255-4.31973c.62867-.39219,1.2306-.76984,1.83547-1.1427.08956-.05521.082-.11385.05128-.195-.14369-.37967-.2839-.76064-.42579-1.141-.07-.1876-.14092-.37485-.2161-.57466-.05682.032-.09313.05078-.12774.07226q-.75385.46794-1.50739.93639c-.30194.18732-.30214.1868-.17432.52729.021.05592.04006.11256.06094.16853C10.53817,9.7373,10.70285,10.17806,10.87737,10.64537Z"/><circle class="d" cx="12" cy="12" r="12"/><circle class="b" cx="12" cy="12" r="11"/><circle class="e" cx="12" cy="12" r="10"/><path class="b" d="M17.98386,9.62444a1.5831,1.5831,0,0,1,1.17152,2.92047.2484.2484,0,0,0-.15162.29033,4.13947,4.13947,0,0,1-1.73493,3.90764,4.29408,4.29408,0,0,1-3.50912.83036,4.16254,4.16254,0,0,1-2.93865-2.04543c-.00876-.01509-.02121-.028-.0456-.05973-.2254.09764-.4542.19548-.682.29566q-1.81476.79827-3.629,1.59776a.408.408,0,0,1-.57468-.15921c-.44227-.6903-.88469-1.38066-1.31253-2.07989a1.31354,1.31354,0,0,1-.1482-.47289c-.14493-.90966-.2756-1.82159-.42039-2.73128a.47056.47056,0,0,1,.252-.52241c.94215-.58123,1.87988-1.16963,2.82353-1.74839,1.45378-.89164,2.9043-1.78888,4.3685-2.66315a4.30692,4.30692,0,0,1,6.10243,1.69853C17.715,8.98153,17.83743,9.30024,17.98386,9.62444ZM5.46482,14.9651c.306.48364.60055.95464.90508,1.4191.02186.03334.12754.04392.17591.02291.94875-.41218,1.89474-.83068,2.84137-1.24774.45962-.20249.91736-.40945,1.3798-.60529a.43438.43438,0,0,1,.63668.259,3.503,3.503,0,0,0,5.16961,1.39855,3.43343,3.43343,0,0,0-3.632-5.82768c-2.24281,1.33122-4.45065,2.72135-6.67339,4.08639C6.00407,14.6323,5.74076,14.79505,5.46482,14.9651Zm5.41255-4.31973c.62867-.39219,1.2306-.76984,1.83547-1.1427.08956-.05521.082-.11385.05128-.195-.14369-.37967-.2839-.76064-.42579-1.141-.07-.1876-.14092-.37485-.2161-.57466-.05682.032-.09313.05078-.12774.07226q-.75385.46794-1.50739.93639c-.30194.18732-.30214.1868-.17432.52729.021.05592.04006.11256.06094.16853C10.53817,9.7373,10.70285,10.17806,10.87737,10.64537Z"/></svg>