<svg xmlns="http://www.w3.org/2000/svg" viewBox="0 0 23.94789 23.48377"><defs><style>.a{fill:#6f6f6e;}.b{fill:#b35b3d;}.c{fill:#3c3c3b;}.d{fill:#963f8f;}.e{fill:#fff;}.f{fill:#dd2f3c;}.g{fill:none;stroke:#fff;stroke-linecap:round;stroke-miterlimit:10;stroke-width:2px;}</style></defs><path class="a" d="M18.38253,12.31952a.1333.1333,0,0,1,.09534.12717l.60674-.30373c1.01124-.50622,1.92135-.91119,2.93259-1.41741a1.49477,1.49477,0,0,1,1.82023.60746,1.3343,1.3343,0,0,1-.60675,1.82239c-1.11236.50622-2.1236,1.01243-3.236,1.51865L16.961,16.19271a13.53874,13.53874,0,0,1-1.21349.60746v-.20249a12.1033,12.1033,0,0,0-1.01124-4.96093,14.32807,14.32807,0,0,0-1.82023-2.93607,9.87771,9.87771,0,0,0-1.82022-1.72114.19.19,0,0,1,0-.30373c1.7191-2.02487,3.53933-3.9485,5.25843-5.97337A1.55384,1.55384,0,0,1,18.07337.39871a1.71027,1.71027,0,0,1,.809,1.72114,1.63235,1.63235,0,0,1-.4045.70871c-1.11235,1.21492-2.32584,2.73357-3.64045,4.151-.20225.20249-.30337.405-.50562.60746l.11457.09423c.70787-.70871,1.30116-1.51164,2.009-2.22034l2.427-2.42985.91011-.91119a1.51349,1.51349,0,0,1,2.22473.20249,1.54544,1.54544,0,0,1-.30337,2.22736c-.91012.80994-1.71911,1.72114-2.62922,2.63233-.809.7087-1.51686,1.51865-2.32585,2.22736l-.50562.50621s.0762.11669.12939.18052c.91012-.7087,1.58972-1.49668,2.49983-2.10414.70787-.50622,1.41574-1.11368,2.1236-1.6199a1.52635,1.52635,0,0,1,1.92135.10124,1.43594,1.43594,0,0,1,.4045,1.72114,5.0687,5.0687,0,0,1-.70787.81" transform="translate(-0.02606 -0.27221)"/><path class="b" d="M13.92637,22.7838h-.20225v-.10124h.10113C13.82525,22.58131,13.82525,22.68256,13.92637,22.7838Z" transform="translate(-0.02606 -0.27221)"/><path class="c" d="M15.48931,16.80419,9.50286,19.79265,3.29141,14.24047l.80267-.75432s6.01328.12239,6.09072-5.88911l.56131-.578A13.00551,13.00551,0,0,1,15.48931,16.80419Z" transform="translate(-0.02606 -0.27221)"/><path class="a" d="M9.98254,7.69851S9.86421,13.08124,4.652,13.16566c0,0-.57972-.27373.26275-2.55915S6.766,5.36132,6.766,5.36132s.42486-3.4476,2.52-2.9493S10.3761,5.32137,10.3761,5.32137L9.47692,7.901v.30373Z" transform="translate(-0.02606 -0.27221)"/><path class="a" d="M4.316,15.75738a.14634.14634,0,0,1,.18044.00748l4.79989,4.17588a.92791.92791,0,0,1-.1228.51446,9.107,9.107,0,0,1-2.48829,2.77923s-.15645.29194-.5803-.07592c-.38915-.33775-3.8857-3.48533-4.45541-3.99826a.13132.13132,0,0,1-.0332-.1608A9.90939,9.90939,0,0,1,4.316,15.75738Z" transform="translate(-0.02606 -0.27221)"/><path class="c" d="M4.15253,15.68528a.10328.10328,0,0,0,.02011-.16739L3.03179,14.438s-.00084-.04564-.33231.153c-.23993.14376-2.364,2.44761-2.33983,3.0373a.32071.32071,0,0,0,.07429.326c.14355.1506.98266.92608.98266.92608A9.1858,9.1858,0,0,1,4.15253,15.68528Z" transform="translate(-0.02606 -0.27221)"/><path class="d" d="M5.87406,23.69093.074,18.484a.1444.1444,0,0,1-.01108-.20375l.0267-.02981a.144.144,0,0,1,.20351-.0111l5.8001,5.207a.14442.14442,0,0,1,.01109.20376l-.02671.02981A.144.144,0,0,1,5.87406,23.69093Z" transform="translate(-0.02606 -0.27221)"/><ellipse class="e" cx="14.67717" cy="15.47429" rx="8" ry="8.00947"/><ellipse class="f" cx="14.67717" cy="15.47429" rx="6.60051" ry="6.60833"/><line class="g" x1="17.41892" y1="12.7293" x2="11.93542" y2="18.21929"/><line class="g" x1="17.41892" y1="18.21929" x2="11.93542" y2="12.7293"/></svg>