<svg xmlns="http://www.w3.org/2000/svg" xmlns:xlink="http://www.w3.org/1999/xlink" viewBox="0 0 23.94789 23.45763"><defs><style>.a{fill:#6f6f6e;}.b{fill:#b35b3d;}.c{fill:#3c3c3b;}.d{fill:#963f8f;}.e{fill:#fff;}.f{fill:#ececec;}.g{fill:#d9d9d9;}.h{fill:url(#a);}</style><linearGradient id="a" x1="9.90953" y1="10.96479" x2="19.44128" y2="20.49655" gradientUnits="userSpaceOnUse"><stop offset="0" stop-color="#3c3c3b"/><stop offset="1" stop-color="#1d1d1b"/></linearGradient></defs><path class="a" d="M18.38253,12.31952a.1333.1333,0,0,1,.09534.12717l.60674-.30373c1.01124-.50622,1.92135-.91119,2.93259-1.41741a1.49477,1.49477,0,0,1,1.82023.60746,1.3343,1.3343,0,0,1-.60675,1.82239c-1.11236.50622-2.1236,1.01243-3.236,1.51865L16.961,16.19271a13.53874,13.53874,0,0,1-1.21349.60746v-.20249a12.1033,12.1033,0,0,0-1.01124-4.96093,14.32807,14.32807,0,0,0-1.82023-2.93607,9.87771,9.87771,0,0,0-1.82022-1.72114.19.19,0,0,1,0-.30373c1.7191-2.02487,3.53933-3.9485,5.25843-5.97337A1.55384,1.55384,0,0,1,18.07337.39871a1.71027,1.71027,0,0,1,.809,1.72114,1.63235,1.63235,0,0,1-.4045.70871c-1.11235,1.21492-2.32584,2.73357-3.64045,4.151-.20225.20249-.30337.405-.50562.60746l.11457.09423c.70787-.70871,1.30116-1.51164,2.009-2.22034l2.427-2.42985.91011-.91119a1.51349,1.51349,0,0,1,2.22473.20249,1.54544,1.54544,0,0,1-.30337,2.22736c-.91012.80994-1.71911,1.72114-2.62922,2.63233-.809.7087-1.51686,1.51865-2.32585,2.22736l-.50562.50621s.0762.11669.12939.18052c.91012-.7087,1.58972-1.49668,2.49983-2.10414.70787-.50622,1.41574-1.11368,2.1236-1.6199a1.52635,1.52635,0,0,1,1.92135.10124,1.43594,1.43594,0,0,1,.4045,1.72114,5.0687,5.0687,0,0,1-.70787.81" transform="translate(-0.02606 -0.27221)"/><path class="b" d="M13.92637,22.7838h-.20225v-.10124h.10113C13.82525,22.58131,13.82525,22.68256,13.92637,22.7838Z" transform="translate(-0.02606 -0.27221)"/><path class="c" d="M15.48931,16.80419,9.50286,19.79265,3.29141,14.24047l.80267-.75432s6.01328.12239,6.09072-5.88911l.56131-.578A13.00551,13.00551,0,0,1,15.48931,16.80419Z" transform="translate(-0.02606 -0.27221)"/><path class="a" d="M9.98254,7.69851S9.86421,13.08124,4.652,13.16566c0,0-.57972-.27373.26275-2.55915S6.766,5.36132,6.766,5.36132s.42486-3.4476,2.52-2.9493S10.3761,5.32137,10.3761,5.32137L9.47692,7.901v.30373Z" transform="translate(-0.02606 -0.27221)"/><path class="a" d="M4.316,15.75738a.14634.14634,0,0,1,.18044.00748l4.79989,4.17588a.92791.92791,0,0,1-.1228.51446,9.107,9.107,0,0,1-2.48829,2.77923s-.15645.29194-.5803-.07592c-.38915-.33775-3.8857-3.48533-4.45541-3.99826a.13132.13132,0,0,1-.0332-.1608A9.90939,9.90939,0,0,1,4.316,15.75738Z" transform="translate(-0.02606 -0.27221)"/><path class="c" d="M4.15253,15.68528a.10328.10328,0,0,0,.02011-.16739L3.03179,14.438s-.00084-.04564-.33231.153c-.23993.14376-2.364,2.44761-2.33983,3.0373a.32071.32071,0,0,0,.07429.326c.14355.1506.98266.92608.98266.92608A9.1858,9.1858,0,0,1,4.15253,15.68528Z" transform="translate(-0.02606 -0.27221)"/><path class="d" d="M5.87406,23.69093.074,18.484a.1444.1444,0,0,1-.01108-.20375l.0267-.02981a.144.144,0,0,1,.20351-.0111l5.8001,5.207a.14442.14442,0,0,1,.01109.20376l-.02671.02981A.144.144,0,0,1,5.87406,23.69093Z" transform="translate(-0.02606 -0.27221)"/><circle class="e" cx="14.66053" cy="15.45763" r="8"/><circle class="f" cx="14.66053" cy="15.45763" r="6.75"/><path class="g" d="M18.48133,21.08027A6.782,6.782,0,0,1,9.17691,19.5855c9.78767,2.34206,10.94934-5.97506,11.065-7.38149A6.37826,6.37826,0,0,1,18.48133,21.08027Z" transform="translate(-0.02606 -0.27221)"/><path class="h" d="M21.386,15.25169a.6488.6488,0,0,0-.0056-.10688,6.528,6.528,0,0,0-.93377-2.87436v-.00563a.61419.61419,0,0,0-.045-.08436A6.73834,6.73834,0,1,0,9.08407,19.493c.01689.02249.03938.05624.0619.08436a4.22423,4.22423,0,0,0,.30374.405c.01686.02249.02812.03938.03938.05624a6.76228,6.76228,0,0,0,3.08812,2.09815.0055.0055,0,0,0,.00563.0056h.00563a.20131.20131,0,0,0,.06187.02252H12.656a6.62626,6.62626,0,0,0,2.01935.315,6.7466,6.7466,0,0,0,6.73315-6.59815,1.03849,1.03849,0,0,0,.00563-.135v-.01685A3.35646,3.35646,0,0,0,21.386,15.25169Zm-6.68247-4.37623.01122-.01126,2.1375-.72562.05627-.01689a.097.097,0,0,0,.07313-.1181L16.976,9.953l-.07312-.37123a6.69969,6.69969,0,0,1,2.84062,2.03061l-.28689.01686-.06749.00563a.10987.10987,0,0,0-.10125.10688v2.41314l-2.01935.48374h-.00563l-2.52562-1.8675a.06037.06037,0,0,0-.03375-.01126ZM12.30159,9.64358l-.07313.26436-.01689.05627a.1074.1074,0,0,0,.0675.12373l.05064.0169,2.16.72v2.03065l-2.43,1.78875-1.96312-.47815V11.7417a.105.105,0,0,0-.09-.10688L9.911,11.62919l-.29815-.01686A6.43927,6.43927,0,0,1,12.30159,9.64358Zm-2.835,9.25313-.05624-.01689a.10127.10127,0,0,0-.135.05064l-.00563.03375-.10125.25873A6.45369,6.45369,0,0,1,8.156,15.98856l.32622.17438.045.02815a.12445.12445,0,0,0,.045.0056.177.177,0,0,0,.10688-.045l.01126-.01126L10.02907,14.363l1.9294.47248.96186,2.99813L11.69971,19.628Zm6.62064,2.835.06749.05624v.00563l.2475.23627a6.49718,6.49718,0,0,1-1.72688.23624,6.62473,6.62473,0,0,1-1.81686-.25876l.21938-.21375h.00563l.0675-.06187a.11063.11063,0,0,0,.01123-.14062l-.01123-.01126-1.28251-1.8225,1.20375-1.755h3.20626l1.08,1.74937-1.27125,1.82813-.00564.01126A.10381.10381,0,0,0,16.08721,21.7317Zm4.01625-2.39625-.135-.35438v-.00563l-.01689-.05061a.105.105,0,0,0-.12937-.06186l-.045.02248-2.25.73125-1.09688-1.78312.96752-3.00376,1.95186-.47812,1.33312,1.77189.00563.0056.02252.02252a.08013.08013,0,0,0,.07873.045c.02252,0,.045-.0056.07876-.0056l.02811-.02815.29251-.15185A6.42,6.42,0,0,1,20.10346,19.33545Z" transform="translate(-0.02606 -0.27221)"/></svg>