<svg xmlns="http://www.w3.org/2000/svg" viewBox="0 0 23.96368 23.4933"><defs><style>.a{fill:#b844ed;}.b{fill:#b35b3d;}.c{fill:#4b4b4b;}.d{fill:#963f8f;}.e{fill:#6d1b8f;}.f{fill:#fff;}.g{isolation:isolate;}</style></defs><path class="a" d="M18.35644,12.05693a.13331.13331,0,0,1,.09534.12717l.60674-.30373c1.01124-.50622,1.92135-.91119,2.93259-1.41741a1.49476,1.49476,0,0,1,1.82023.60746,1.33429,1.33429,0,0,1-.56367,1.80083l-.04308.02156c-1.11236.50622-2.1236,1.01243-3.236,1.51865l-3.03368,1.51866a13.53454,13.53454,0,0,1-1.21349.60746v-.20249a12.10319,12.10319,0,0,0-1.01124-4.96093A14.32794,14.32794,0,0,0,12.89,8.43809,9.8777,9.8777,0,0,0,11.06975,6.717a.19.19,0,0,1,0-.30373c1.7191-2.02487,3.53933-3.9485,5.25843-5.97337a1.55386,1.55386,0,0,1,1.7191-.30373,1.71027,1.71027,0,0,1,.809,1.72114,1.63236,1.63236,0,0,1-.4045.70871c-1.11235,1.21492-2.32584,2.73357-3.64045,4.151-.20225.20249-.30337.405-.50562.60746l.11457.09423c.70787-.70871,1.30116-1.51164,2.009-2.22034l2.427-2.42985.91011-.91119a1.5135,1.5135,0,0,1,2.13813.09855h0q.0456.05.0866.10394A1.54545,1.54545,0,0,1,21.759,4.233q-.03482.02809-.07122.05414c-.91012.80994-1.71911,1.72114-2.62922,2.63233-.809.7087-1.51686,1.51865-2.32585,2.22736l-.50562.50621s.0762.11669.12939.18052c.91012-.7087,1.58972-1.49668,2.49983-2.10414.70787-.50622,1.41574-1.11368,2.1236-1.6199a1.52635,1.52635,0,0,1,1.92135.10124,1.43594,1.43594,0,0,1,.4045,1.72114,5.06883,5.06883,0,0,1-.70787.81" transform="translate(0.00002 -0.00001)"/><path class="b" d="M13.90028,22.52121H13.698V22.42h.10113C13.79916,22.31872,13.79916,22.42,13.90028,22.52121Z" transform="translate(0.00002 -0.00001)"/><path class="c" d="M15.46322,16.54162,9.47677,19.53006,3.26532,13.97788l.80267-.75432s6.01328.12239,6.09072-5.88911l.56131-.578A13.00555,13.00555,0,0,1,15.46322,16.54162Z" transform="translate(0.00002 -0.00001)"/><path class="a" d="M9.95645,7.43592s-.11833,5.3827-5.33054,5.46715c0,0-.57972-.27373.26275-2.55915S6.73991,5.09873,6.73991,5.09873s.42486-3.4476,2.52-2.9493S10.35,5.05878,10.35,5.05878L9.45083,7.63841v.30373Z" transform="translate(0.00002 -0.00001)"/><path class="a" d="M4.28991,15.49479a.14635.14635,0,0,1,.18044.00748l4.79989,4.17588a.928.928,0,0,1-.1228.51446,9.10707,9.10707,0,0,1-2.48829,2.77923s-.15645.29194-.5803-.07592c-.38915-.33775-3.8857-3.48533-4.45541-3.99826a.13132.13132,0,0,1-.0332-.1608A9.90924,9.90924,0,0,1,4.28991,15.49479Z" transform="translate(0.00002 -0.00001)"/><path class="c" d="M4.12644,15.42269a.10329.10329,0,0,0,.02011-.16739L3.0057,14.17541s-.00084-.04564-.33231.153c-.23993.14376-2.364,2.44761-2.33983,3.0373a.32072.32072,0,0,0,.07429.326c.14355.1506.98266.92608.98266.92608A9.18563,9.18563,0,0,1,4.12644,15.42269Z" transform="translate(0.00002 -0.00001)"/><path class="d" d="M5.848,23.42834.04791,18.22141a.1444.1444,0,0,1-.01108-.20379l.0267-.02981a.144.144,0,0,1,.20334-.01119h0l.00017.00016,5.8001,5.207a.14442.14442,0,0,1,.01109.20376l-.02671.02981a.144.144,0,0,1-.20334.01121h0Z" transform="translate(0.00002 -0.00001)"/><circle class="e" cx="13.46317" cy="15.29365" r="8.19965"/><circle class="f" cx="13.46317" cy="15.29365" r="7.51634"/><g class="g"><path class="e" d="M13.46973,20.08984a4.63824,4.63824,0,0,1-3.73584-1.65527l1.45068-1.38281a3.04649,3.04649,0,0,0,2.3125,1.14941,1.45148,1.45148,0,0,0,.97852-.32129,1.08274,1.08274,0,0,0,.376-.86914,1.01088,1.01088,0,0,0-.49218-.90332,2.56366,2.56366,0,0,0-1.38282-.31445h-.875L11.773,14.45215l2.28564-2.29981H10.29492V10.34717h6.47266v1.58691l-2.42188,2.312q2.57227.43945,2.57227,2.71a2.94848,2.94848,0,0,1-.9375,2.25782A3.52978,3.52978,0,0,1,13.46973,20.08984Z" transform="translate(0.00002 -0.00001)"/></g></svg>