<svg xmlns="http://www.w3.org/2000/svg" viewBox="0 0 47.5 47.5" id="s"><defs><clipPath id="a"><path d="M0 38h38V0H0v38Z"></path></clipPath></defs><g clip-path="url(#a)" transform="matrix(1.25 0 0 -1.25 0 47.5)"><path fill="#3b88c3" d="M37 5a4 4 0 0 0-4-4H5a4 4 0 0 0-4 4v28a4 4 0 0 0 4 4h28a4 4 0 0 0 4-4V5Z"></path><path fill="#fff" d="M25.125 27.348c0-1.209-.806-2.294-2.076-2.294-1.272 0-2.264.93-4.125.93-1.333 0-2.542-.713-2.542-2.016 0-3.193 10.356-1.147 10.356-9.146 0-4.434-3.659-7.194-7.938-7.194-2.387 0-7.534.558-7.534 3.473 0 1.209.806 2.201 2.077 2.201 1.457 0 3.194-1.209 5.209-1.209 2.047 0 3.163 1.148 3.163 2.667 0 3.658-10.356 1.457-10.356 8.65 0 4.341 3.565 7.039 7.689 7.039 1.737 0 6.077-.652 6.077-3.101"></path></g></svg>